<svg id="svg" fill="#ffffff" stroke="#ffffff" width="200" height="200" version="1.1" viewBox="144 144 512 512" xmlns="http://www.w3.org/2000/svg">
    <g id="IconSvg_bgCarrier" stroke-width="0"></g>
    <g id="IconSvg_tracerCarrier" stroke-linecap="round" stroke-linejoin="round" stroke="#CCCCCC" stroke-width="0">
      <defs xmlns="http://www.w3.org/2000/svg">
  <clipPath id="b">
   <path d="m148.09 446h267.91v192h-267.91z"></path>
  </clipPath>
  <clipPath id="a">
   <path d="m461 384h190.9v267.9h-190.9z"></path>
  </clipPath>
 </defs>
<path xmlns="http://www.w3.org/2000/svg" d="m439.9 284.12c-32.695-68.918-94.965-107.81-139.1-86.906-44.133 20.906-53.352 93.809-20.656 162.73 31.188 65.746 89.277 104.04 132.86 89.273 0.35156-10.781-1.7617-36.223-24.836-62.07-46.352-52.043-65.496-93.457-70.535-152.96v0.003906c-0.375-4.3281 2.8281-8.1406 7.1562-8.5156 4.3242-0.375 8.1367 2.8281 8.5117 7.1562 5.0391 55.672 23.023 94.664 66.906 143.79v-0.003906c16.461 17.742 26.516 40.477 28.566 64.59 35.672-26.098 41.363-93.305 11.133-157.09z"></path>
<g xmlns="http://www.w3.org/2000/svg" clip-path="url(#b)">
  <path d="m334.1 565.85c-65.949-3.7773-97.086-15.719-144.75-55.719-1.7109-1.3008-2.8203-3.2461-3.0586-5.3789-0.24219-2.1367 0.40234-4.2812 1.7812-5.9297 1.3789-1.6484 3.375-2.6602 5.5195-2.7969 2.1445-0.14062 4.2539 0.60547 5.8359 2.0625 45.645 38.188 72.195 48.418 135.57 52.043 28.625 2.2539 56.023 12.598 78.996 29.828 8.5664-44.438-35.266-97.086-102.73-120.91-71.844-25.898-143.43-9.3711-159.81 36.676s28.566 104.04 100.46 129.63c67.965 24.234 135.57 10.73 156.59-29.727-10.934-8.6133-38.746-27.758-74.414-29.773z"></path>
 </g>
<g xmlns="http://www.w3.org/2000/svg" clip-path="url(#a)">
  <path d="m602.93 388.31c-45.996-16.426-104.04 28.566-129.68 100.41-24.285 68.215-10.629 136.03 30.23 156.79h-0.003906c15.945-18.895 25.301-42.469 26.652-67.156 3.7773-66.25 18.488-104.64 58.34-152.2v-0.003907c2.9023-2.8398 7.4805-3.0273 10.602-0.42578 3.1211 2.5977 3.7656 7.1406 1.4922 10.504-37.836 45.141-51.137 79.902-54.465 143.03-1.3906 26.035-10.648 51.031-26.551 71.691 44.285 8.0117 96.582-35.621 120.56-102.83 25.344-71.891 8.8164-143.43-37.18-159.81z"></path>
 </g>

      </g>
     <g id="IconSvg_iconCarrier">
      <defs xmlns="http://www.w3.org/2000/svg">
  <clipPath id="b">
   <path d="m148.09 446h267.91v192h-267.91z"></path>
  </clipPath>
  <clipPath id="a">
   <path d="m461 384h190.9v267.9h-190.9z"></path>
  </clipPath>
 </defs>
<path xmlns="http://www.w3.org/2000/svg" d="m439.9 284.12c-32.695-68.918-94.965-107.81-139.1-86.906-44.133 20.906-53.352 93.809-20.656 162.73 31.188 65.746 89.277 104.04 132.86 89.273 0.35156-10.781-1.7617-36.223-24.836-62.07-46.352-52.043-65.496-93.457-70.535-152.96v0.003906c-0.375-4.3281 2.8281-8.1406 7.1562-8.5156 4.3242-0.375 8.1367 2.8281 8.5117 7.1562 5.0391 55.672 23.023 94.664 66.906 143.79v-0.003906c16.461 17.742 26.516 40.477 28.566 64.59 35.672-26.098 41.363-93.305 11.133-157.09z"></path>
<g xmlns="http://www.w3.org/2000/svg" clip-path="url(#b)">
  <path d="m334.1 565.85c-65.949-3.7773-97.086-15.719-144.75-55.719-1.7109-1.3008-2.8203-3.2461-3.0586-5.3789-0.24219-2.1367 0.40234-4.2812 1.7812-5.9297 1.3789-1.6484 3.375-2.6602 5.5195-2.7969 2.1445-0.14062 4.2539 0.60547 5.8359 2.0625 45.645 38.188 72.195 48.418 135.57 52.043 28.625 2.2539 56.023 12.598 78.996 29.828 8.5664-44.438-35.266-97.086-102.73-120.91-71.844-25.898-143.43-9.3711-159.81 36.676s28.566 104.04 100.46 129.63c67.965 24.234 135.57 10.73 156.59-29.727-10.934-8.6133-38.746-27.758-74.414-29.773z"></path>
 </g>
<g xmlns="http://www.w3.org/2000/svg" clip-path="url(#a)">
  <path d="m602.93 388.31c-45.996-16.426-104.04 28.566-129.68 100.41-24.285 68.215-10.629 136.03 30.23 156.79h-0.003906c15.945-18.895 25.301-42.469 26.652-67.156 3.7773-66.25 18.488-104.64 58.34-152.2v-0.003907c2.9023-2.8398 7.4805-3.0273 10.602-0.42578 3.1211 2.5977 3.7656 7.1406 1.4922 10.504-37.836 45.141-51.137 79.902-54.465 143.03-1.3906 26.035-10.648 51.031-26.551 71.691 44.285 8.0117 96.582-35.621 120.56-102.83 25.344-71.891 8.8164-143.43-37.18-159.81z"></path>
 </g>

      </g>
      </svg>