<svg id="svg" fill="#ffffff" stroke="#ffffff" width="200" height="200" version="1.1" viewBox="144 144 512 512" xmlns="http://www.w3.org/2000/svg" transform="matrix(-1, 0, 0, 1, 0, 0)">
    <g id="IconSvg_bgCarrier" stroke-width="0"></g>
    <g id="IconSvg_tracerCarrier" stroke-linecap="round" stroke-linejoin="round" stroke="#CCCCCC" stroke-width="0">
      <defs xmlns="http://www.w3.org/2000/svg">
  <clipPath id="a">
   <path d="m148.09 148.09h503.81v503.81h-503.81z"></path>
  </clipPath>
 </defs>
<g xmlns="http://www.w3.org/2000/svg" clip-path="url(#a)">
  <path transform="matrix(5.0381 0 0 5.0381 148.09 148.09)" d="m81.254 50.099c0 19.939-16.164 36.102-36.102 36.102s-36.102-16.164-36.102-36.102 16.164-36.102 36.102-36.102 36.102 16.163 36.102 36.102" fill="none" stroke="#000000" stroke-miterlimit="10" stroke-width="3"></path>
 </g>
<path xmlns="http://www.w3.org/2000/svg" transform="matrix(5.0381 0 0 5.0381 148.09 148.09)" d="m75.174 50.099c0 16.581-13.441 30.022-30.022 30.022s-30.022-13.441-30.022-30.022 13.441-30.022 30.022-30.022 30.022 13.441 30.022 30.022" fill="none" stroke="#000000" stroke-miterlimit="10"></path>
<path xmlns="http://www.w3.org/2000/svg" d="m556.91 375.51c21.703-0.035156 43.395-0.50781 65.098-0.54297 9.75-0.015625 9.75-15.129 0-15.113-21.703 0.035157-43.395 0.50781-65.098 0.54297-9.7461 0.015625-9.7461 15.129 0 15.113z"></path>
<path xmlns="http://www.w3.org/2000/svg" d="m616.12 373.29c7.6641 8.5586 2.7852 23.625 1.0469 33.605-1.6641 9.5312 12.906 13.602 14.574 4.0156 2.8516-16.375 7.3242-34.613-4.9336-48.305-6.5117-7.2773-17.164 3.4492-10.688 10.684z"></path>
<path xmlns="http://www.w3.org/2000/svg" d="m373.9 298.9c-1.5977-8.0859-3.7891-17.035-11.547-21.199-6.1016-3.2734-11.941 1.8633-14.391 6.9219-10.312 21.328 14.48 46.977 18.895 66.488 1.5312-0.64453 3.0664-1.293 4.6055-1.9414-7.4531-12.312-13.18-27.852-25.941-35.66-5.9336-3.6328-15.488-3.5703-18.516 3.8125-5.4961 13.418 2.2266 28.406 9.1328 39.727 3.9336 6.4531 8.5664 12.715 13.227 18.668 6.3945 8.168 16.688 17.234 16.863 28.336 0.83984-0.83594 1.6758-1.6836 2.5195-2.5195-24.984 0.90625-40.129-34.676-57.34-48.309-13.059-10.344-18.742 1.0664-17.375 13.66 2.5352 23.426 17.824 40.672 34.641 55.914 5.1055 4.625 10.992 8.3438 16.125 12.957 0.82031 0.84766 1.6406 1.6836 2.457 2.5195 2.543 8.5898 0.44922 11.504-6.293 8.7461-5.0078-0.80469-9.3945-3.2539-13.637-5.9062-16.355-10.176-26.066-28.277-34.844-44.699-5.2227-9.7695-22.016-44.289-37.484-30.848-14.09 12.246-7.5664 43.836-3.5117 58.359 7.4727 26.738 25.68 50.176 48.543 65.527 21.402 14.379 50.168 28.027 76.492 22.051 3.168-0.71875 1.8242-5.5781-1.3398-4.8633-27.805 6.3086-59.477-10.902-80.852-27.492-24.242-18.793-39.406-48.582-42.125-78.875-0.76172-8.5195 0.25781-17.129 2.9727-25.227 7.0625-21.074 26.945 13.012 31.102 20.48 10.938 19.652 23.27 45.465 46.004 54.074 6.4883 2.4492 15.652 5.2539 22.117 1.3086 4.75-2.9102 0.97266-10.637-1.4453-13.598-7.5977-9.2812-18.152-15.598-26.867-23.754-10.211-9.543-19.387-20.52-23.992-33.871-2.4727-7.168-4.6211-15.844-2.8203-23.383 2.2305-9.3438 23.844 16.32 25.941 18.859 10.664 12.891 24.762 32.078 43.523 31.398 1.3555-0.050781 2.5391-1.1133 2.5195-2.5195-0.13281-8.2812-4.7461-14.688-9.6289-21.074-7.1992-9.4258-14.641-18.523-21.145-28.469-3.5938-5.4922-6.3672-11.289-8.5312-17.488-2.8047-8.0664-2.7695-25.598 11.02-19.16 11.574 5.4062 17.855 23.477 24.137 33.855 1.5078 2.4922 5.2305 0.82812 4.6055-1.9414-2.9609-13.109-10.148-24.207-15.855-36.215-3.6523-7.6797-5.7383-16.211-4.0391-24.641 1.9883-9.8711 12.816-3.3789 15.195 3.0234 0.98828 2.6562 1.4922 5.5273 2.0391 8.2969 0.61719 3.1953 5.4727 1.8438 4.8438-1.332z"></path>
<path xmlns="http://www.w3.org/2000/svg" d="m374.21 512.15c54.004-5.6992 105.63-49.586 120.04-101.95 4.5352-16.496-3.2656-38.223-22.922-27.332-12.34 6.8359-22.242 21.559-32.023 31.512-14.625 14.898-30.277 27.336-50.992 32.109 0.94531 1.2305 1.8945 2.4688 2.8398 3.6992 12.16-18.203 25.109-35.668 36.531-54.371 7.4805-12.262 16.816-27.996 11.426-42.699-3.7344-10.176-13.996-3.7695-19.164 1.0078-14.223 13.156-23.469 30.984-37.676 44.324 1.4375 0.59375 2.8672 1.1875 4.3008 1.7852 3.4297-26.863 38.023-52.668 28.414-81.812-6.6914-20.293-32.812 25.191-34.746 28.574 1.5352 0.64453 3.0664 1.293 4.6055 1.9414 3.2695-21.457 25.418-52.422 6.7812-72.227-11.844-12.59-17.078 23.355-19.723 24.273-3.0469 1.0547-1.7383 5.9258 1.3398 4.8555 6.1445-2.125 8.2891-18.871 11.461-23.938 4.5352-7.2383 8.8633 13.043 8.9062 14.41 0.21094 6.5547-1.9961 13.23-3.9062 19.422-3.2812 10.637-8.0312 20.789-9.7188 31.867-0.40625 2.6719 3.082 4.6016 4.6055 1.9414 5.5938-9.7773 11.48-19.477 18.988-27.926 2.5273 0.93359 5.0586 1.8594 7.5859 2.793 0.074219 3.8555-0.38672 7.6641-1.3789 11.418-1.4102 6.8711-4.625 13.383-7.6836 19.629-7.1836 14.68-18.445 28.207-20.566 44.793-0.29688 2.332 2.8711 3.125 4.3008 1.7852 10.746-10.09 19.148-22.047 28.336-33.5 2.9961-3.7344 5.9844-7.4023 9.3398-10.82 2.5781-2.6367 8.7227-8.7266 11.723-0.55078 1.4766 4.0117 0.33594 8.6055-0.62109 12.559-2.9414 12.148-11.062 23.23-17.543 33.715-9.4102 15.234-20.328 29.348-30.266 44.234-1.3008 1.9414 0.82812 4.1602 2.8398 3.6992 23.09-5.3242 39.836-19.781 56.074-36.309 9.125-9.3008 17.547-20.156 28.148-27.824 19.781-14.305 16.133 20.113 13.543 28.34-14.734 46.895-64.707 86.41-113.2 91.531-3.1914 0.33984-3.2266 5.3789 0 5.0391z"></path>
<path xmlns="http://www.w3.org/2000/svg" d="m498.59 398.58c-1.293 9.6523-5.168 18.703-6.0156 28.445-0.17969 2.0859 2.9688 3.4922 4.3008 1.7852 3.7695-4.8398 5.2109-10.785 8.6016-15.824-1.5664-0.42188-3.1289-0.85547-4.6953-1.2812 0.72656 5.8945-1.4727 11.316-3.1953 16.848-0.96875 3.1094 3.8945 4.4297 4.8633 1.3398 1.8555-5.9648 4.1523-11.84 3.3711-18.184-0.30078-2.4492-3.2109-3.4727-4.6953-1.2695-3.1406 4.6758-4.3359 10.352-7.8125 14.809 1.4297 0.59766 2.8672 1.1875 4.3008 1.7852 0.83984-9.6914 4.7266-18.801 6.0156-28.445 0.43359-3.2148-4.6172-3.1758-5.0391-0.007813z"></path>
<path xmlns="http://www.w3.org/2000/svg" d="m414.47 529.73c3.7969 1.9883 7.1953 2.5703 11.395 2.0352-1.1172-8.2461-2.2305-16.488-3.3438-24.738-8.5195 3.3672-15.91 9.2188-17.121 18.801-1.4062 11.141 9.7656 17.105 19.324 15.383 7.0625-1.2812 13.855-5.1406 19.949-8.8281 4.6562-2.8164 8.6562-6.7109 13.055-9.8984 4.2969-3.1094 9.0273-5.2656 13.254-8.5781 5.4141-4.2422 4.4141-13.391 0-17.809-5.2891-5.2969-12.41-4.2227-17.809 0-3.0977 2.4297-7.0742 3.8594-10.305 6.1953-3.707 2.6836-7.1406 5.7266-10.906 8.3438-2.207 1.5273-4.7266 2.7344-7.1133 3.9648-0.69141 0.32422-1.3711 0.66016-2.0508 0.99219-5.3242 2.1875-2.3125-1.2812 1.8672 1.8281 1.9297 2.5078 3.8594 5.0195 5.7891 7.5273-2.3086 7.1641-2.8828 9.4883-1.7344 6.9688 1.6836-0.89844 1.8477-1.1016 0.49219-0.59766 5.2969-2.0977 9.2461-6.082 9.2461-12.152 0-6.2188-5.7695-13.453-12.594-12.594-3.3203 0.10547-2.8828 0.57031 1.3203 1.4062-14.387-7.4961-27.125 14.242-12.715 21.75z"></path>
<path xmlns="http://www.w3.org/2000/svg" d="m446.74 536.27c3.4961-2.9727 8.3398-4.4688 12.211-6.918 5.8125-3.6719 11.34-8.4531 16.203-13.297 9.2188-9.1797 16.887-20.051 24.566-30.516 9.6328-13.121-12.242-25.652-21.746-12.711-6.4805 8.8281-13.09 17.469-20.637 25.418-8.332 8.7773-19.391 12.543-28.41 20.211-12.398 10.531 5.5117 28.258 17.812 17.812z"></path>
<path xmlns="http://www.w3.org/2000/svg" d="m481.2 443.51c-16.711 15.215-29.852 31.633-48.871 44.652-16.73 11.461-44.488 28.34-65.773 25.16v24.293c6.0391-2.332 11.117-3.9258 17.75-3.6523 16.246 0.67188 16.184-24.52 0-25.191-8.5703-0.35156-16.449 1.4648-24.445 4.543-10.168 3.9141-13.703 22.25 0 24.293 56.672 8.4453 102.02-42.516 139.15-76.301 12.035-10.938-5.8281-28.699-17.812-17.797z"></path>
<path xmlns="http://www.w3.org/2000/svg" d="m389.09 531.94c0.625-0.36328 1.2656-0.69141 1.9258-0.98438-1.2227 0.53906-1.1172 0.53906 0.3125 0.011719 1.5977-0.53906 3.2539-0.90625 4.9062-1.25 0.83594-0.16797 1.6758-0.31641 2.5195-0.44141-1.2695 0.19531-1.1523 0.20703 0.33594 0.050781 1.4727-0.125 2.9414-0.11719 4.418-0.070313 6.8672 0.23828 12.594-5.9062 12.594-12.594 0-7.0312-5.7383-12.359-12.594-12.594-9.1914-0.31641-19.055 1.6914-27.141 6.1328-6.0117 3.293-7.918 11.438-4.5195 17.23 3.543 6.0273 11.227 7.8125 17.242 4.5078z"></path>
<path xmlns="http://www.w3.org/2000/svg" d="m344.63 548.46c8.082 1.0117 15.125 3.2383 23.375 2.9922 8.918-0.25781 17.91-1.5938 26.766-2.6094 12.551-1.4375 27.625-2.7461 38.398-9.9766 13.41-8.9922 0.81641-30.828-12.711-21.746-9.7539 6.543-25.262 6.5234-36.465 7.7227-13.98 1.5078-25.598 0.15625-39.363-1.5781-16.09-2.0156-15.895 23.195 0 25.195z"></path>
<path xmlns="http://www.w3.org/2000/svg" d="m490.55 368.55c12.715 30.238-11.027 59.293-13.043 88.277-1.1289 16.227 24.07 16.117 25.191 0 0.59766-8.6523 6.1367-17.191 8.9961-25.328 2.8555-8.125 4.3594-17.023 5.2188-25.574 1.457-14.473 3.7266-30.27-2.0703-44.074-6.2031-14.738-30.586-8.2695-24.293 6.6992z"></path>
<path xmlns="http://www.w3.org/2000/svg" d="m482.14 440.68c3.5078-2.8516 0.40625-0.69141-0.59766-0.082031 5.7422 5.75 11.488 11.492 17.23 17.23 0.62109-1.0938 0.38281-0.875-0.71094 0.66016-7.0195-4.0859-14.031-8.168-21.055-12.254-0.29297 0.71875-0.52344 1.4375-0.62891 2.207-0.48828 3.5312-0.60937 6.4922 1.2734 9.7031 1.6484 2.8164 4.3789 4.9336 7.5234 5.793 5.9648 1.6328 14.551-1.9883 15.496-8.7969 0.10547-0.77734 0.33203-1.4844 0.62891-2.207 2.1016-5.1523-1.3555-11.633-5.7891-14.227-4.5898-2.6836-11.637-2.293-15.262 1.9688-1.1953 1.3945-2.3828 2.8047-3.2305 4.4375-2.625 5.0664-2.1875 11.109 1.9688 15.262 3.9453 3.9531 10.434 4.9141 15.262 1.9688 2.0352-1.2305 3.7891-2.3008 5.6992-3.8594 5.332-4.3359 4.4883-13.324 0-17.809-5.2188-5.2109-12.5-4.3242-17.809 0.003906z"></path>
<path xmlns="http://www.w3.org/2000/svg" d="m499.37 380.2c5.3711 26.094 0.33594 65.129-16.906 86.613-10.062 12.535 7.6445 30.484 17.809 17.809 23.438-29.195 30.809-75.098 23.398-111.12-3.2812-15.898-27.566-9.1523-24.301 6.7031z"></path>
<path xmlns="http://www.w3.org/2000/svg" d="m486.47 440.39c-1.5078 2.2305-2.5938 4.707-4.0977 6.9258-3.8477 5.6992-1.1172 13.934 4.5156 17.23 6.2109 3.6406 13.395 1.1602 17.23-4.5156 1.5078-2.2227 2.5938-4.6953 4.0977-6.9258 3.8477-5.6992 1.1172-13.934-4.5156-17.23-6.2109-3.6484-13.398-1.1641-17.23 4.5156z"></path>
<path xmlns="http://www.w3.org/2000/svg" d="m431.37 324.32c3.7188 8.2578 9.9805 14.465 15.422 21.574 5.582 7.3047 10.086 14.496 18.066 19.473 9.9688 6.2188 20.621-3.9414 18.504-14.223-2.8281-13.707-15.395-21.676-18.895-34.637-6.1719 4.7422-12.34 9.4805-18.504 14.223 14.801 8.3945 19.211 28.824 34.324 36.844 11.887 6.3086 22.199-5.9688 17.23-17.23-4.1445-9.4062-11.02-17.523-14.73-27.172-0.41406-1.7734-0.57031-1.9062-0.46484-0.39844-15.625 2.1953-20.453 5.8359-14.504 10.918 2.7344 2.793 4.7812 6.3281 6.8828 9.5977 5.1953 8.0859 8.7305 17.195 14.605 24.801 9.5859 12.426 30.363 1.6641 21.746-12.711-3.457-5.7695-5.6289-11.895-8.1719-18.086-6.0859-14.809-30.469-8.332-24.293 6.6953 3.3594 8.1719 6.1602 16.5 10.723 24.105 7.2461-4.2383 14.5-8.4727 21.746-12.711-9.793-12.695-26.691-61.602-49.934-43-14.488 11.594 9.7695 39.625 14.645 50.672 5.7422-5.7422 11.488-11.488 17.23-17.23-6.2188-3.3008-10.242-12.656-14.934-17.938-6.1523-6.9219-11.145-14.234-19.391-18.906-9.6094-5.4453-21.41 3.457-18.504 14.223 3.5469 13.125 16.238 21.719 18.895 34.637 6.1719-4.7422 12.34-9.4805 18.504-14.223-4.6367-2.8906-7.3516-8.2422-10.602-12.484-4.9062-6.418-10.5-12.086-13.855-19.523-6.6641-14.793-28.367-1.9688-21.742 12.711z"></path>
<path xmlns="http://www.w3.org/2000/svg" d="m491.55 314.93c-0.42188-1.0469-0.83984-2.1016-1.2578-3.1484-5.1641 5.1641-10.332 10.328-15.496 15.492 5.4258 1.3086 9.0898 10.914 11.43 15.41 4.8828 9.3867 8.0312 19.324 10.316 29.633 3.5234 15.855 27.809 9.1328 24.293-6.6953-4.5156-20.328-15.699-56.93-39.344-62.645-8.4297-2.0352-19.266 6.0664-15.496 15.492 0.42187 1.0469 0.83984 2.1016 1.2578 3.1484 5.957 14.902 30.332 8.4062 24.297-6.6875z"></path>
<path xmlns="http://www.w3.org/2000/svg" d="m407.83 301.36c5.8281 5.7539 12.852 9.957 19.598 14.508 7.2383 4.8906 12.922 11.637 20.738 15.801 11.664 6.2109 22.555-5.9648 17.23-17.23-0.40234-1.0117-0.92578-1.9531-1.5781-2.8359-8.7109-13.645-30.527-1.0234-21.746 12.711 0.64453 0.875 1.1641 1.8242 1.5781 2.8359 5.7422-5.7422 11.488-11.488 17.23-17.23-6.3867-3.4023-11.391-8.6992-17.09-13.094-5.9492-4.5898-12.781-7.9805-18.152-13.273-11.57-11.414-29.391 6.3906-17.809 17.809z"></path>
<path xmlns="http://www.w3.org/2000/svg" d="m443.5 291.83c0.003906-0.16016 0.003906-0.32422 0.011719-0.48828-1.2305 2.9688-2.457 5.9414-3.6875 8.9062-7.6445 6.9922-12.973 1.3164-5.6484 4.5273 2.7852 1.2227 5.5 2.6055 8.1914 4.0273 8.6797 4.5781 15.961 11.148 23.406 17.438 12.316 10.418 30.234-7.3086 17.809-17.809-11.078-9.3672-21.984-18.461-35.16-24.703-10.363-4.9062-29.719-10.219-30.113 8.1016-0.34766 16.25 24.844 16.223 25.191 0z"></path>
<path xmlns="http://www.w3.org/2000/svg" d="m416.8 281.29c-3.9609 0.58594-4.4805 1.0469-1.5352 1.4062 3.1484 0.67188 6.2188 1.8633 9.2383 2.9414 5.2188 1.8633 9.957 4.6211 14.672 7.5 12.625 7.7227 21.125 21.844 34.184 28.457 10.746 5.4414 24.262-5.9102 17.23-17.23-4.0195-6.4727-9.3047-10.746-15.195-15.457-5.0898 6.5938-10.176 13.191-15.262 19.781 6.5391 4.2656 10.449 10.082 15.008 16.262 9.5234 12.93 31.398 0.38672 21.746-12.711-7.1953-9.7656-13.75-18.586-24.035-25.301-11.859-7.7422-26.492 10.797-15.262 19.781 3.9297 3.1484 8.543 6 11.254 10.363 5.7422-5.7422 11.488-11.488 17.23-17.23-7.3672-3.7266-13.617-12.168-19.844-17.59-7.4453-6.4844-15.598-12.141-24.453-16.516-10.75-5.3164-26.098-12.16-37.684-6.1953-14.461 7.4258-1.7148 29.16 12.707 21.738z"></path>
<path xmlns="http://www.w3.org/2000/svg" d="m239.4 345.51c-0.62891 0.31641-1.2578 0.62891-1.8906 0.94531 5.7422 5.7422 11.488 11.488 17.23 17.23 11.34-20.816 21.266-38.91 38.449-55.707 6.6758-6.5195 14.246-11.91 22.227-16.688 3.6211-2.168 7.4023-4.0391 11.18-5.8984 0.98438-0.48438 11.273-2.4492 7.5781-4.0977 14.699 6.5547 27.527-15.148 12.711-21.75-18.258-8.1367-39.379 6.5078-54.238 16.48-28.258 18.957-43.852 45.934-59.66 74.945-6.2461 11.465 6.0352 22.832 17.23 17.23 0.62891-0.31641 1.2578-0.62891 1.8906-0.94531 14.539-7.2617 1.7773-28.992-12.707-21.746z"></path>
<path xmlns="http://www.w3.org/2000/svg" d="m332.78 265.83c-18.512 7.2305-100.32 76-62.215 91.941 11.281 4.7148 25.477-9.4453 32.945-16.105 9.25-8.2461 26.172-21.34 18.617-35.402-7.6914-14.312-29.438-1.5938-21.75 12.711 1.082-8.5508 0.71094-11.383-1.1289-8.5-1.4453 1.793-3.1133 3.4258-4.7188 5.0742-2.8281 2.8867-5.8359 5.5977-8.8281 8.3047-1.8906 1.7031-3.8086 3.3594-5.707 5.0469-1.2344 1.0898-2.6289 1.9102-4.0352 2.7812-3.7539 2.3281-2.4141 0.24219 0.41406 1.4219 2.5078 1.9297 5.0195 3.8594 7.5273 5.7891 0.50391 7.0781 1.7969 7.8047 3.8906 2.1797 2.293-3.9062 4.8672-7.6484 7.6992-11.18 4.3438-5.4102 9.7695-10.066 14.691-14.938 7.9844-7.9062 18.637-20.668 29.301-24.832 14.949-5.8438 8.4453-30.211-6.7031-24.293z"></path>
<path xmlns="http://www.w3.org/2000/svg" d="m285.21 298.36c-9.7188-9.8125-21.469-0.035157-28.277 7.6992-6.0352 6.8555-13.844 16.098-14.008 25.766-0.26562 16.254 24.922 16.227 25.191 0 0.023438-1.4961-0.96875 3.8281 0.097657 0.90234-1.4492 4 0.25781-0.10547 0.83203-1.0664 0.63672-1.0742 1.3398-2.1016 2.0469-3.1289 0.37891-0.54297 0.76562-1.082 1.1602-1.6211 2-2.7539-1.6172 1.9961 0.53516-0.69141 1.8203-2.2734 3.7773-4.4336 5.8555-6.4727 0.75-0.74219 1.5469-1.4297 2.3633-2.1016-1.6758 1.2539-2.0156 1.543-1.0039 0.86328 0.15234-0.089844 0.30859-0.17578 0.45703-0.26172-4.1602 2.2734-8.5078 1.5781-13.055-2.0703 11.434 11.547 29.246-6.2734 17.805-17.816z"></path>
<path xmlns="http://www.w3.org/2000/svg" d="m226.37 418.53c-8.2305 24.688 21.34 60.469 35.137 77.914 16.047 20.289 47.359 47.035 74.941 47.293 16.254 0.15625 16.238-25.035 0-25.191-19.07-0.17578-39.715-21.949-51.867-34.098-7.8047-7.793-38.613-45.137-33.918-59.219 5.1484-15.461-19.184-22.027-24.293-6.6992z"></path>
<path xmlns="http://www.w3.org/2000/svg" d="m231.72 432.79c21.844 53.965 66.266 99.129 127.07 104.64 16.184 1.4766 16.043-23.734 0-25.191-48.5-4.4102-85.531-43.543-102.79-86.16-6.0078-14.852-30.383-8.3672-24.285 6.707z"></path>
<path xmlns="http://www.w3.org/2000/svg" d="m327.77 523.84c-0.82813 1.6914-1.582 3.4062-2.5195 5.0391 3.6289-2.0742 7.25-4.1523 10.879-6.2383h-0.31641c2.9688 7.1758 5.9414 14.34 8.9062 21.504 1.6133-2.0664 3.1328-3.7695 3.5586-6.4922 1.0547-6.7812-1.6172-13.523-8.7969-15.496-6.0391-1.6641-14.434 2.0039-15.492 8.7969 0.97266-1.5352 1.9492-3.0781 2.9258-4.6133-2.8555 3.6719-4.5508 7.4961-3.2383 12.262 1.4844 5.4023 6.543 9.2383 12.148 9.2383h0.31641c4.4102 0 8.6758-2.3945 10.879-6.2383 0.9375-1.6328 1.6914-3.3438 2.5195-5.0391 3.0195-6.1602 1.7227-13.566-4.5195-17.23-5.6133-3.2891-14.234-1.6562-17.25 4.5078z"></path>
<path xmlns="http://www.w3.org/2000/svg" d="m224.98 403.3c-0.10937 2.4102-0.21484 4.8281-0.31641 7.2383 4.9492-0.67188 9.8945-1.3398 14.844-2.0039-1.3008-7.6133 1.1094-15.027 1.8438-22.551 0.23047-2.3828 4.418-21.547 4.918-21.367-1.7578-1.7578-3.5156-3.5156-5.2734-5.2734 0.76172 2.0547-0.89844 5.3711-1.5781 7.3164-2.1797 6.2617-4.0312 12.559-5.4414 19.039-2.457 11.32-1.9844 22.789 0.085938 34.098 1.6641 9.0742 13.977 5.7852 14.844-2.0039 0.52344-4.6836 0.44141-9.1406 0.31641-13.855-4.9492 0.67188-9.8945 1.3359-14.844 2.0039 0.57031 3.2852 1.1172 6.5234 1.8906 9.7656 2.2578 9.4883 16.832 5.4609 14.574-4.0156-0.76953-3.2383-1.3203-6.4844-1.8906-9.7578-1.4727-8.5-15.074-6.3828-14.844 2.0039 0.125 4.7109 0.20703 9.168-0.31641 13.855 4.9492-0.67187 9.8945-1.3398 14.844-2.0039-3.1797-17.367 1.5586-32.004 6.3945-48.391 1.9844-6.7305 0.97266-21.684-10.309-17.906-9.3008 3.1133-13.617 12.281-16.164 21.109-3.6172 12.551-5.8242 29.09-3.6211 41.961 1.4961 8.7578 14.5 6.1406 14.844-2.0039 0.10156-2.4141 0.20703-4.832 0.31641-7.2383 0.43359-9.7656-14.684-9.7227-15.117-0.019531z"></path>
<path xmlns="http://www.w3.org/2000/svg" d="m250.13 364.17c0.28906 0.17969 0.57422 0.36719 0.86719 0.55078-1.1602-2.8477-2.3164-5.6875-3.4727-8.5352-0.1875 0.65625-0.36719 1.3164-0.55078 1.9688-1.9688 7.0234 5.3516 10.977 11.098 8.5352 2.7812-0.058594 5.5625-0.12109 8.3477-0.1875 8.7422 3.082 12.152-9.082 5.8242-13.816-2.0039-1.7031-4.0156-3.4102-6.0273-5.1133-2.4492 4.207-4.9023 8.418-7.3516 12.629 21.914 3.2383 32.359 38.676 41.223 55.488 8.6914 16.488 20.695 29.164 39.07 33.938 9.4453 2.4492 13.445-12.133 4.0195-14.574-42.48-11.027-35.68-82.84-80.297-89.426-6.8203-1.0078-13.492 6.9531-7.3516 12.629 3.0742 2.8398 5.7383 4.9766 9.0898 7.4805 1.9414-4.6055 3.8828-9.2109 5.8242-13.816-7.8281-2.7617-12.59-1.4375-19.992 1.7031 3.6992 2.8477 7.4023 5.6875 11.098 8.5352 0.1875-0.65625 0.36719-1.3164 0.55078-1.9688 0.94141-3.3555-0.60938-6.7148-3.4727-8.5352-0.28906-0.17969-0.57422-0.36719-0.86719-0.55078-8.2539-5.2383-15.824 7.8516-7.6289 13.066z"></path>
<path xmlns="http://www.w3.org/2000/svg" d="m304.52 414.05c2.1797 0.77734 4.6445 4.6055 6.1406 6.2773 2.7148 3.043 5.25 6.2383 8.1562 9.0938 3.6406 3.582 7.8945 6.5664 11.734 9.9414 3.4102 2.9922 5.9922 6.8555 9.2852 9.9102 5.5508 5.1445 14.484 0.10547 12.629-7.3516-0.082032-0.32422-0.15625-0.64062-0.23828-0.95312-2.3516-9.457-16.93-5.4414-14.574 4.0156 0.082031 0.32422 0.15625 0.64062 0.23828 0.95312 4.207-2.4492 8.418-4.9023 12.629-7.3516-3.2227-2.9922-6.0273-6.8125-9.2852-9.9219-4.4023-4.1797-9.5312-7.5078-13.707-11.957-5.7734-6.1406-10.707-14.277-18.988-17.23-9.2031-3.2812-13.129 11.328-4.0195 14.574z"></path>
<path xmlns="http://www.w3.org/2000/svg" d="m304.01 350.4c8.3789 0.57422 19.301 17.789 24.305 23.867 8.8359 10.742 16.82 21.477 28.562 29.262 6.1875 4.1016 11.945-2.625 11.098-8.5352-0.011718-0.089844-0.023437-0.17969-0.039062-0.27734-0.32422-2.2773-2.9961-4.9531-5.2734-5.2734-0.097656-0.015625-0.1875-0.023437-0.27734-0.039062-9.5312-1.3672-13.637 13.199-4.0195 14.574 0.097657 0.015626 0.1875 0.023438 0.27734 0.039063l-5.2734-5.2734c0.011718 0.089843 0.023437 0.17969 0.039062 0.27734 3.6992-2.8477 7.4023-5.6875 11.098-8.5352-13.438-8.918-22.359-23.449-32.84-35.43-7.4531-8.5156-15.527-18.93-27.652-19.758-9.7383-0.68359-9.6719 14.438-0.003907 15.102z"></path>
<path xmlns="http://www.w3.org/2000/svg" d="m357.14 382.48c-15.023-23.195-37.094-44.148-34.234-73.965 0.93359-9.7031-14.191-9.6133-15.113 0-3.1602 32.973 19.637 55.871 36.301 81.586 5.2656 8.1523 18.359 0.58594 13.047-7.6211z"></path>
<path xmlns="http://www.w3.org/2000/svg" d="m329.2 341.27c-0.41797-6.1055-1.0664-12.176-1.2383-18.297-0.25781-9.2656 4.875-18.277 6.6367-27.242 0.85156-4.3438-2.0547-10.137-7.2852-9.5664-8.7578 0.95703-12.113 7.2266-14.855 14.969-2.6211 7.3867-0.80469 22.703-5.2109 28.766 2.1758-1.25 4.3516-2.5 6.5234-3.7422-11.941-0.45703-14.555 7.4062-24.328 13.105-10.617 6.1914-12.09 17.348-10.625 28.777 0.99609 7.7695 12.887 11.09 14.844 2.0117 1.3555-6.293 2.2461-12.641 3.7773-18.895 2.3164-9.4648-12.258-13.48-14.574-4.0195-1.5312 6.2578-2.4219 12.602-3.7773 18.895 4.9492 0.67188 9.8945 1.3398 14.844 2.0117-1.6484-12.816 5.8555-16.324 13.543-24.324 4.4141-4.6016 1.0938-2.6406 6.2969-2.4375 2.8359 0.10547 4.9609-1.5938 6.5234-3.7422 3.0312-4.1719 4.7422-35.996 7.0117-36.242-2.4297-3.1875-4.8555-6.3789-7.2852-9.5664-1.6484 8.3789-5.0117 16.172-6.6133 24.562-1.5625 8.1758 0.10938 16.797 0.67578 24.992 0.66016 9.6562 15.781 9.7148 15.117-0.015625z"></path>
<path xmlns="http://www.w3.org/2000/svg" d="m285.12 348.2c-5.9766 7.2969-4.125 15.008-3.4727 23.609 0.3125 4.1055 3.2031 7.5586 7.5586 7.5586 3.8828 0 7.8711-3.4453 7.5586-7.5586-0.19141-2.5039-0.59766-4.9766-0.87109-7.4727-0.14453-1.3281-0.1875-2.6602-0.17188-4 0.003907-0.35938 0.52344-1.9766 0.089844-1.4492 2.6094-3.1836 3.1289-7.5586 0-10.688-2.6953-2.6953-8.0781-3.1953-10.691 0z"></path>
<path xmlns="http://www.w3.org/2000/svg" d="m408.43 423.41c-0.42188 0.10156-0.83984 0.20703-1.2578 0.31641 1.9414 4.6055 3.8789 9.1992 5.8203 13.805 13.527-7.2461 26.008-19.719 36.797-30.465 11.785-11.73 22.973-22.227 36.254-32.195 7.6992-5.7734 0.17578-18.902-7.6289-13.055-11.773 8.8281-22.184 17.035-32.516 27.648-11.863 12.195-25.426 26.922-40.535 35.016-7.7344 4.1406-2.3359 15.852 5.8203 13.816 0.42188-0.10547 0.83984-0.21484 1.2578-0.31641 9.457-2.3594 5.4453-16.938-4.0117-14.57z"></path>
<path xmlns="http://www.w3.org/2000/svg" d="m481.72 361.06c-6.6133-2.7461-13.613-0.10156-20.586-0.45703-7.0234-0.35937-15.148 0.48047-19.75 6.4492-5.1836 6.7227-7.0742 15.215-12.543 22.121-6.5039 8.2109-14.332 16.793-18.625 26.375-3.9531 8.8047 9.0703 16.5 13.047 7.6289 5.8828-13.121 17.398-23.422 24.992-35.605 3.168-5.0781 2.2539-11.426 9.3398-11.941 4.5586-0.32812 15.98-1.707 20.113 0.003906 8.9922 3.7344 12.879-10.895 4.0117-14.574z"></path>
<path xmlns="http://www.w3.org/2000/svg" d="m420.82 426.59c18.625-16.176 30.809-37.465 51.688-51.398 8.0664-5.3789 0.50781-18.48-7.6289-13.055-10.203 6.8125-19.367 14.652-27.605 23.738-9.1055 10.039-16.848 21.09-27.141 30.023-7.375 6.4141 3.3672 17.059 10.688 10.691z"></path>
<path xmlns="http://www.w3.org/2000/svg" d="m485.1 367.49c0.36328 0.30078 0.72656 0.60547 1.0898 0.90234-6.5859-6.0742-15.383 1.5-11.863 9.1602 2.2773 4.9766 8.2617 3.3867 12.254 5.6289 3.5508 1.9961 4.5078 8.1484 6.7695 11.336 3.707 5.25 11.824 4.8203 13.809-1.8047 0.55469-1.8555 0.25781-3.4258 0-5.2812-0.55469-4.0898-5.7266-6.2578-9.2969-5.2734-4.3633 1.1992-5.8359 5.2188-5.2812 9.2969 0.039063 0.28906 0.082031 0.57422 0.11719 0.86719v-4.0195c-0.039063 0.13281-0.082031 0.26172-0.11719 0.39453 4.6055-0.59766 9.2031-1.2031 13.809-1.8047-3.043-4.3008-4.3242-9.2539-7.8594-13.301-3.9648-4.5391-9.875-6.0117-15.551-6.8633 1.5078 1.1523 3.0117 2.3125 4.5156 3.4727-0.039063-0.097657-0.085938-0.1875-0.125-0.28125-3.9531 3.0547-7.9102 6.1055-11.863 9.1523 0.60547 0.55859 1.2305 1.1094 1.9766 1.4648 3.7148 1.7852 8.1328 1.0547 10.34-2.7148 1.9375-3.3242 0.99219-8.5508-2.7227-10.332z"></path>
<path xmlns="http://www.w3.org/2000/svg" d="m503.41 375.94c0.82813 1.2891-0.035156-0.37891 0.17969-1.7266-0.65625 4.0664 0.98438 8.1172 5.2812 9.2969 3.6367 1.0039 8.6406-1.2031 9.2969-5.2734 0.57422-3.5703 0.29297-6.8125-1.707-9.9141-2.2227-3.4609-6.6719-4.8633-10.34-2.7148-3.4336 2.0078-4.9414 6.8633-2.7109 10.332z"></path>
<path xmlns="http://www.w3.org/2000/svg" d="m427.25 350.76c14.609-5.3047 6.9219 15.801 14.965 21.281 5.0625 3.4492 11.008 1.082 14.191-3.6992 4.4648-6.6797 3.668-13.047 1.9453-20.582-3.6992 2.8477-7.4023 5.6875-11.098 8.5352 3.1953 2.3984 6.3789 4.8164 9.4922 7.3203 0.51562-3.9531 1.0195-7.9102 1.5312-11.871 0.95312-0.23828 1.9141-0.48047 2.8672-0.71484-9.6367 0.80469-9.7188 15.926 0 15.113 1.793-0.15234 3.1875-0.42969 4.7578-1.3438 3.875-2.2578 5.3906-8.7656 1.5312-11.871-4.1172-3.3164-8.3242-6.5078-12.551-9.6836-5.7188-4.293-12.426 2.7461-11.098 8.5352 0.60547 2.6445 1.7422 5.1602 0.41406 7.6836 6.2617 4.6094 9.0547 5.2148 8.3672 1.8086-0.085938-1.0625-0.15234-2.125-0.19531-3.1953-0.24219-4.457-0.66016-8.168-2.457-12.281-4.2969-9.8398-17.383-12.984-26.668-9.6133-9.0977 3.3008-5.1758 17.91 4.0039 14.578z"></path>
<path xmlns="http://www.w3.org/2000/svg" d="m425.91 344.22c1.2812-4.4844 2.6797-8.9219 3.6289-13.492 0.90625-4.3438 0.30078-8.8164 1.043-13.078-3.1523 3.8086-5.7852 4.707-7.8984 2.6836 0.44141 0.39453 0.86719 0.8125 1.2695 1.2539 0.94141 0.98438 1.6211 2.1758 2.3242 3.3359 2.1406 3.5625 2.4531 8.1914 3.9609 12.051 1.4961 3.8359 5.0117 6.4531 9.2969 5.2734 3.6641-1.0078 6.7812-5.457 5.2812-9.2969-3.9062-10-6.3008-25.617-19.668-26.98-7.25-0.73438-9.6523 7.7773-9.6562 13.246-0.003906 7.3516-2.1406 13.965-4.1367 20.98-2.6953 9.3984 11.887 13.379 14.555 4.0234z"></path>
<path xmlns="http://www.w3.org/2000/svg" d="m437.51 325.53c0.22656 0.27344 0.44922 0.54297 0.67188 0.82031-0.67188-1.1367-1.5781-2.0391-2.7109-2.7148-1.3789-1.0195-2.9336-1.0781-4.5586-1.2656-3.5586-0.41797-6.1211 2.6758-7.2852 5.5469 0.94141-2.3164 0.30078-0.83984 0.003906-0.32812-0.62891 1.0898-1.4844 1.3398 0.41797-0.34375 3.9531 3.0469 7.9102 6.1016 11.863 9.1523 0.082032-0.15625 0.16797-0.3125 0.26172-0.45703 4.9414-8.4219-8.1172-16.027-13.047-7.6289-0.10156 0.14453-0.17969 0.30078-0.26562 0.45703-4.0273 7.75 5.4141 14.871 11.871 9.1602 1.6289-1.4414 2.6797-4.0703 3.4648-5.9961-2.4297 1.8477-4.8555 3.6992-7.2852 5.5469 0.16797 0.019531 0.33594 0.039062 0.50781 0.058593-1.2695-0.34375-2.543-0.69141-3.8125-1.0312 0.082031 0.058594 0.15625 0.11719 0.24219 0.17578-0.90625-0.90625-1.8086-1.8086-2.7109-2.7148 0.49219 0.80078 1.1094 1.5078 1.6914 2.2383 2.5742 3.2227 8.0195 2.6641 10.688 0 3.1445-3.1445 2.5625-7.457-0.007813-10.676z"></path>
<path xmlns="http://www.w3.org/2000/svg" d="m408.21 434.77c-1.2812-2.625-4.2734-1.2383-5.8438 0.11719 1.3203 1.0234 2.6367 2.0352 3.9531 3.0469 0.53906-0.9375 1.0312-1.8906 1.5781-2.8359 0.95703-1.6406-0.26172-3.7891-2.1758-3.7891-1.9336 0-3.1172 1.6836-4.3594 2.9609-2.2109 2.293-4.2227 4.7422-6.5547 6.9062-1.9492 1.8086 0.10547 4.7266 2.4492 4.2109 5.9844-1.2891 10.367-5.7852 15.715-8.4453-1.0117-1.3203-2.0312-2.6367-3.0469-3.9531-2.1875 1.7422-4.8711 2.7969-7.3594 4.0156-2.918 1.4258-0.36328 5.7734 2.5391 4.3477 2.9375-1.4375 5.8125-2.7461 8.3828-4.8008 2.3633-1.8789-0.64062-5.1445-3.0469-3.9531-4.9336 2.4375-9.0234 6.75-14.516 7.9297 0.81641 1.4062 1.6328 2.8164 2.4492 4.2109 3.1016-2.8828 5.7148-6.2383 8.8164-9.1328-0.58984 0.24609-1.1875 0.49219-1.7852 0.73438h0.31641c-0.72656-1.2578-1.4492-2.5273-2.1758-3.7891-0.54297 0.9375-1.0312 1.8984-1.5781 2.8359-1.4961 2.5781 1.8477 4.8828 3.9531 3.0469-0.69141-0.37109-1.375-0.75391-2.0664-1.1445 1.4336 2.9453 5.7695 0.39063 4.3555-2.5195z"></path>
<path xmlns="http://www.w3.org/2000/svg" d="m391.14 391.05c2.8555-8.0273 8.5039-14.449 13.602-21.125 5.9922-7.8438 11.348-15.906 18.5-22.793-1.3203-1.0195-2.6367-2.0352-3.9531-3.0547-8.5664 14.344-21.492 25.441-29.285 40.305 1.5352 0.64453 3.0664 1.293 4.6055 1.9414 2.7344-8.2383 10.625-14.125 16.242-20.445 5.7227-6.4336 11-13.012 17.746-18.434 1.6484-1.3242 0.33594-4.5508-1.7852-4.3008-10.219 1.1953-16.641 9.793-22.566 17.426 1.3203 1.0195 2.6367 2.0352 3.9531 3.0547 2.7852-5.2305 5.0039-10.73 7.8945-15.898 1.0781-1.9258 2.7109-3.9492 1.8047-6.1914-1.1992-2.9727-6.082-1.6758-4.8633 1.3398 0.1875 0.45312-3.5312 6.5586-3.707 6.9062-1.8906 3.7422-3.5 7.6016-5.4805 11.305-1.2852 2.4141 2.1367 5.4023 3.9531 3.0547 4.7578-6.1328 10.617-14.969 19-15.949-0.59375-1.4375-1.1836-2.8672-1.7852-4.3008-8.1953 6.5781-14.445 14.941-21.539 22.621-5.3555 5.8008-11.195 10.797-13.75 18.48-0.90234 2.7148 3.2812 4.4648 4.6055 1.9414 7.7773-14.844 20.723-25.961 29.285-40.305 1.4922-2.5-1.9102-5.0234-3.9531-3.0547-7.4258 7.1484-13.305 15.461-19.285 23.809-5.2188 7.2852-11.055 13.75-14.105 22.328-1.082 3.0703 3.7852 4.3789 4.8672 1.3398z"></path>
<path xmlns="http://www.w3.org/2000/svg" d="m390.88 334.66c6.918-9.2617 13.035-19.086 22.277-26.254 2.3125-1.7891-0.64453-5.3516-3.0469-3.9531-8.5508 4.9531-14.16 12.949-19.48 21.055-1.7969 2.7422 2.5195 5.1797 4.3477 2.543 2.4844-3.5703 3.6562-7.5781 4.9609-11.688 1.7773-5.6016 4.8555-10.68 6.625-16.309 0.76562-2.4375-2.4727-4.207-4.2109-2.4492-6.8867 6.9609-8.9688 17.547-11.668 26.617-0.80469 2.7109 3.3086 4.5156 4.6055 1.9414 4.7344-9.4297 6.293-20.871 14.09-28.461-1.4023-0.81641-2.8047-1.6328-4.2109-2.4492-1.3672 5.6172-4.2461 10.602-4.8125 16.414-0.21094 2.1914 2.9023 3.3398 4.3008 1.7852 3.6133-4.0156 6.1836-8.8359 10.078-12.594-1.4023-0.81641-2.8047-1.6328-4.2109-2.4492-0.92578 3.4805-2.6211 6.6641-3.7773 10.078-0.79688 2.3438 2.5781 4.3516 4.2109 2.4492 1.5078-1.7578 2.8984-3.5938 4.4102-5.3555-1.4023-0.81641-2.8047-1.6328-4.2109-2.4492-0.42188 2.8555-0.83594 5.6641-1.0312 8.5391 0.83594-0.83984 1.6836-1.6758 2.5195-2.5195-2.168-0.22266-4.1328-0.22266-6.2969 0 0.22656 1.6484 0.44141 3.3008 0.67188 4.9492 4.5-1.5781 5.4258 3.6523 6.0312 6.1094 0.78516 3.1953 5.4297 1.8086 4.8633-1.3398-0.75391-4.1445-0.78125-8.0664-0.53906-12.242-1.5664 0.42188-3.1289 0.84766-4.6953 1.2695 1.8438 3.0664 1.9609 5.6797 1.5469 9.1172 1.6484-0.22266 3.293-0.44141 4.9492-0.67188-0.96875-3.8203-0.80469-7.168 0.31641-10.941h-4.8633c0.52734 3.0078 0.90625 5.9141 1.8906 8.8164 1.043 3.0586 5.9062 1.75 4.8633-1.3398-0.98438-2.9023-1.3594-5.8086-1.8906-8.8164-0.45312-2.5742-4.1953-2.2305-4.8633 0-1.3555 4.5703-1.4844 8.9922-0.31641 13.617 0.75 2.9688 4.6367 1.9805 4.9492-0.67188 0.51953-4.3086 0.015625-7.918-2.2305-11.664-1.3398-2.2266-4.5508-1.1836-4.6953 1.2695-0.26562 4.6211-0.10547 9.0352 0.71875 13.578 1.6211-0.44141 3.2383-0.89062 4.8633-1.3398-1.5352-6.2188-5.0586-12.148-12.234-9.6328-2.5234 0.88281-2.3164 5.25 0.67188 4.9492 2.168-0.22266 4.1328-0.22266 6.2969 0 1.4297 0.14453 2.4336-1.2578 2.5195-2.5195 0.17578-2.4141 0.46484-4.8164 0.85547-7.2031 0.32422-2.2109-2.3789-4.5898-4.2109-2.4492-1.5078 1.7578-2.8984 3.5938-4.4102 5.3555 1.4023 0.81641 2.8047 1.6328 4.2109 2.4492 1.1641-3.4297 2.8398-6.5703 3.7773-10.078 0.65625-2.457-2.4023-4.1953-4.2109-2.4492-3.9258 3.7852-6.4492 8.5586-10.078 12.594 1.4375 0.59375 2.8672 1.1875 4.3008 1.7852 0.51562-5.2852 3.3867-9.9609 4.6367-15.074 0.59375-2.4453-2.3789-4.2383-4.2109-2.4492-8.2422 8.0195-9.8984 19.559-14.879 29.477 1.5352 0.64453 3.0664 1.293 4.6055 1.9414 2.4375-8.1836 4.1758-18.129 10.375-24.395-1.4023-0.81641-2.8047-1.6328-4.207-2.4492-1.5781 5.0234-4.2383 9.5469-5.9844 14.484-1.5 4.2461-2.4922 8.5547-5.0977 12.309 1.4492 0.84766 2.9023 1.6914 4.3477 2.543 4.8477-7.3867 9.875-14.727 17.672-19.25-1.0117-1.3203-2.0312-2.6367-3.0469-3.9531-9.5742 7.4258-15.906 17.688-23.062 27.277-1.9648 2.6133 2.4102 5.1172 4.3242 2.5469z"></path>
<path xmlns="http://www.w3.org/2000/svg" d="m328.03 306.27c-0.75391 1.4766-1.5117 2.957-2.2656 4.4336-1.0469 1.6367 0.32812 3.7773 2.1758 3.7891 3.9883 0.03125 7.5273-0.66016 11.375-1.668-0.81641-1.4023-1.6328-2.8047-2.4492-4.207-2.918 2.4922-4.1914-10.258-2.6562-12.379-1.5352-0.20313-3.0664-0.40234-4.6055-0.60547 0.86328 4.2578 0.94141 8.6211 1.5781 12.914 0.39453 2.6758 4.1328 2.1094 4.8555 0 2.4805-7.2266 1.0195-14.617 1.668-22.082h-5.0391c-0.085938 7.6211-1.4023 17.441 3.4922 23.941 1.3242 1.7617 3.8281 1.5781 4.6055-0.60547 3.0547-8.5664 0.11719-17.66 1.0391-26.492h-5.0391c-0.125 9.1133-2.0508 20.848 3.8086 28.668 1.1875 1.5859 4.0898 1.7539 4.6055-0.60547 1.9492-8.8906-1.3789-17.578-1.4805-26.492h-5.0391c1.2383 9.9453 1.293 19.902 6.0117 28.98 1.3516 2.6016 5.2852 0.76562 4.6055-1.9414-0.9375-3.7188-1.9258-7.3867-3.1484-11.023-1.0273-3.0547-5.7148-1.8242-4.8555 1.3398 1.6758 6.1914 4.6914 11.723 7.1797 17.609 1.3203-1.0195 2.6367-2.0352 3.9531-3.0547-4.1016-3.8125-4.9023-11.723-5.9922-16.957-1.7344-8.3398-2.4844-16.625 4.418-22.934-1.4023-0.81641-2.8047-1.6328-4.207-2.4492-1.7422 6.6133-3.5977 13.082-4.5 19.875h5.0391c0.31641-8.2734 2.6953-15.898 9.3398-21.207-1.3203-1.0195-2.6367-2.0352-3.9531-3.0547-1.5234 2.8633-3.6133 4.5938-5.9062 6.7305-2.0625 1.918 0.74219 5.6914 3.0547 3.9531 3.75-2.8203 7.6094-4.5742 12.543-3.8398-0.20313-1.5312-0.40234-3.0664-0.60547-4.6055-5.4062 2.293-11.055 3.7852-16.375 6.2969 1.1484 1.1484 2.2969 2.2969 3.4453 3.4453 6.168-9.1758 16.551-2.8359 20.523 4.4102 1.3203-1.0195 2.6367-2.0352 3.9531-3.0547-2.0469-1.7422-3.9414-3.6133-5.9844-5.3555-1.0195 1.3203-2.0352 2.6367-3.0547 3.9531 6.8633 4.6445 7.0703 12.734 5.457 19.828-0.71875 3.1641 4.1367 4.5078 4.8555 1.3398 2.1445-9.4375 1.1328-19.488-7.7695-25.512-2.3633-1.5977-5.2344 2.1016-3.0547 3.9531 2.0469 1.7422 3.9414 3.6133 5.9844 5.3555 2.1406 1.8242 5.3867-0.44922 3.9531-3.0547-6.1602-11.227-21.191-16.367-29.227-4.4102-1.5352 2.2812 1.3555 4.4336 3.4453 3.4453 5.3047-2.5078 10.977-4.0117 16.375-6.2969 1.9453-0.82813 1.4727-4.2969-0.60547-4.6055-6.125-0.91797-11.465 0.61328-16.426 4.3477 1.0195 1.3203 2.0352 2.6367 3.0547 3.9531 2.6211-2.4453 5.0078-4.5781 6.6914-7.7539 1.4141-2.6602-1.7773-4.793-3.9531-3.0547-7.6289 6.0898-10.453 15.289-10.812 24.766-0.125 3.3398 4.625 3.1094 5.0391 0 0.83984-6.3398 2.6953-12.379 4.3164-18.539 0.66016-2.5039-2.3711-4.1328-4.207-2.4492-7.2461 6.625-7.957 15.566-6.3125 24.809 1.25 7.043 2.3594 17.062 7.8906 22.207 2.2305 2.0742 5.0312-0.51562 3.9531-3.0547-2.3125-5.4609-5.1133-10.645-6.6758-16.398-1.6172 0.44141-3.2383 0.89062-4.8555 1.3398 1.2188 3.6367 2.2109 7.3047 3.1484 11.023 1.5312-0.64453 3.0664-1.293 4.6055-1.9414-4.2656-8.2227-4.2031-17.445-5.3242-26.441-0.38672-3.125-5.0742-3.3398-5.0391 0 0.097656 8.3594 3.4805 16.859 1.668 25.148 1.5312-0.20312 3.0664-0.40234 4.6055-0.60547-5.2305-6.9844-3.2344-17.906-3.1172-26.121 0.046875-3.3086-4.7109-3.1602-5.0391 0-0.86719 8.3164 2.0117 17.113-0.85156 25.148 1.5312-0.20312 3.0664-0.40234 4.6055-0.60547-4.2578-5.6523-2.875-14.688-2.8047-21.402 0.035156-3.293-4.7617-3.1836-5.0391 0-0.60547 6.9688 0.83203 13.996-1.4805 20.742h4.8555c-0.64063-4.3594-0.69531-8.6055-1.5781-12.914-0.48047-2.3477-3.4453-2.2031-4.6055-0.60547-4.9336 6.8047 0.66016 26.957 10.57 18.48 1.9961-1.707-0.14062-4.8125-2.4492-4.207-3.3516 0.87109-6.5703 1.5078-10.035 1.4805 0.72656 1.2656 1.4492 2.5234 2.1758 3.7891 1.6641-2.5938 1.7617-2.8203 2.7695-5.6445 1.0859-2.9922-3.7812-4.2969-4.8711-1.2656z"></path>
<path xmlns="http://www.w3.org/2000/svg" d="m373.39 287.21-1.5781 1.5781c1.4023 0.81641 2.8047 1.6328 4.207 2.4492 1.5234-6.7969 3.4648-13.129 7.8555-18.727-1.4375-0.59375-2.8672-1.1875-4.3008-1.7852-0.78516 5.9922-3.8047 11.039-6.2656 16.363 1.5352 0.64453 3.0664 1.293 4.6055 1.9414 1.7188-4.3516 8.625-21.566 1.9961-24.883-1.3008-0.64844-2.625-0.28125-3.4453 0.90234-3.1992 4.6211-4.3984 9.8281-6.2383 15.09 1.6172 0.44141 3.2383 0.89062 4.8555 1.3398 1.6875-5.668 2.7852-10.887 0.37891-16.426-0.91797-2.1094-4.0508-1.3008-4.6055 0.60547-1.3906 4.7812-2.1523 9.5586-2.8359 14.484 1.6484 0.22266 3.3008 0.44141 4.9492 0.67187 0.71484-6.793-0.39453-13.148-3.4922-19.219-1.0391-2.0312-3.9961-1.3672-4.6055 0.60547-1.4062 4.5508-1.6289 8.8359-1.668 13.578-0.023437 3.3164 4.7109 3.1602 5.0391 0 0.61328-5.9258-0.31641-11.336-1.9805-17.043-0.66406-2.2891-4.3281-2.5273-4.8555 0-1.0742 5.1406-1.375 10.227-1.668 15.469 1.6484-0.22266 3.3008-0.44141 4.9492-0.67188-1.1836-5.3555-2.1602-10.375-4.3477-15.402-0.84766-1.9492-4.2578-1.4648-4.6055 0.60547-0.98438 5.875-1.2344 11.602 0.31641 17.398 0.75 2.832 4.8125 2.1172 4.9492-0.67188 0.34375-7.1289-0.97266-13.941-3.8086-20.48-0.90625-2.0898-4.0742-1.3242-4.6055 0.60547-1.6289 5.9531-1.4453 11.848-1.3516 17.984h5.0391c-0.14453-5.793-0.82031-10.48-3.1797-15.754-0.92188-2.0664-4.082-1.3438-4.6055 0.60547-1.0898 4.0352-0.70703 7.7148 0.31641 11.73 1.6172-0.44141 3.2383-0.89062 4.8555-1.3398-2.1172-7.8203-7.6445-16.238-16.637-14.355-2.8477 0.59375-2.1094 4.9219 0.67187 4.9492 9.8828 0.10156 19.434-2.3867 29.285-2.8359 3.2305-0.14453 3.2578-5.1172 0-5.0391-9.4023 0.23047-18.57 1.5664-27.75 3.5586 0.44141 1.6172 0.89062 3.2383 1.3398 4.8555 11.578-3.0664 22.523-1.9844 34.285-2.125 5.1328-0.066406 21.52-2.0156 23.711 4.1445 0.8125-1.0625 1.6172-2.125 2.4297-3.1875-10.934-0.20312-25.141-4.8984-35.543-8.4102-0.22266 1.6484-0.44141 3.3008-0.67188 4.9492 8.2969-0.83984 16.105 0.35156 24.355 1.3711 9.5078 1.1758 18.324 1.0898 26.965 5.8398 0.64453-1.5352 1.2891-3.0664 1.9414-4.6055-12.586-1.8086-25.102-3.9258-37.824-4.5v5.0391c6.7969-0.69141 33.73-0.81641 38.445 5.9961 0.50391-1.2344 1.0039-2.4688 1.5078-3.6992-0.60938-0.125-1.2227-0.25-1.8398-0.37891-2.8828-1.4766-5.4297 2.8711-2.5391 4.3477 2.4844 1.2695 2.9531 1.2656 5.7188 0.88281 1.5664-0.21094 2.3516-2.4727 1.5078-3.6992-3.1133-4.5-7.7539-5.8906-13.164-6.3945-9.7734-0.91016-19.816-3.0938-29.629-2.0977-3.1836 0.32422-3.3008 4.8906 0 5.0391 12.27 0.55078 24.348 2.5742 36.484 4.3164 2.6367 0.37891 4.6445-3.1133 1.9414-4.6055-6.9961-3.8477-13.82-5.2344-21.734-5.6992-10.848-0.63672-21.191-3.3086-32.117-2.207-2.8008 0.28125-3.4648 4-0.67188 4.9492 11.023 3.7266 25.246 8.3789 36.879 8.5938 1.5508 0.03125 2.9766-1.6484 2.4297-3.1875-2.7305-7.6797-13.164-7.5781-19.977-7.8711-14.629-0.625-29.965-1.4414-44.203 2.332-3.1523 0.83594-1.8203 5.543 1.3398 4.8555 8.7344-1.8906 17.473-3.1484 26.41-3.3711v-5.0391c-9.8359 0.44141-19.422 2.9375-29.285 2.8359 0.22266 1.6484 0.44141 3.3008 0.67188 4.9492 6.1094-1.2734 9.3359 6.7578 10.445 10.836 0.84766 3.1406 5.6562 1.8086 4.8555-1.3398-1.0781-2.9883-1.1836-6.0039-0.31641-9.0547-1.5312 0.20313-3.0664 0.40234-4.6055 0.60547 1.8047 4.2734 2.6289 8.6758 2.4883 13.215 0.082031 3.2461 5.0898 3.2539 5.0391 0-0.089843-5.6914-0.35938-11.07 1.168-16.652-1.5312 0.20312-3.0664 0.40234-4.6055 0.60547 2.4844 5.7344 3.4219 11.715 3.1172 17.938 1.6484-0.22266 3.3008-0.44141 4.9492-0.67188-1.3398-5.0234-1.1641-9.6328-0.31641-14.723-1.5312 0.20312-3.0664 0.40234-4.6055 0.60547 2.0156 4.6367 2.7617 9.3359 3.8398 14.199 0.64062 2.8984 4.7969 2.0625 4.9492-0.67188 0.26172-4.8008 0.49219-9.3828 1.4805-14.133h-4.8555c1.5234 5.2227 2.3672 10.227 1.7969 15.703h5.0391c0.03125-4.207 0.23828-8.2031 1.4805-12.242-1.5312 0.20312-3.0664 0.40234-4.6055 0.60547 2.7188 5.3242 3.4219 10.828 2.8047 16.676-0.29688 2.8164 4.5586 3.4727 4.9492 0.67188 0.68359-4.9258 1.4453-9.6992 2.8359-14.484-1.5312 0.20312-3.0664 0.40234-4.6055 0.60547 1.8203 4.1875 0.33203 8.4492-0.88281 12.543-0.9375 3.1445 3.793 4.3672 4.8555 1.3398 1.6758-4.7812 2.8125-9.668 5.7266-13.879-1.1484 0.30078-2.2969 0.60547-3.4453 0.90234 2.3867 1.1953-3.3359 16.742-4.3008 19.199-1.0469 2.6484 3.4102 4.5195 4.6055 1.9414 2.9531-6.3789 6.0352-11.898 6.957-18.902 0.27734-2.1094-3.0039-3.4414-4.3008-1.7852-4.957 6.3242-7.4062 13.141-9.1484 20.949-0.53906 2.4102 2.3633 4.2969 4.207 2.4492 0.52344-0.52344 1.0469-1.0469 1.5781-1.5781 2.2812-2.3125-1.2773-5.875-3.5781-3.5742z"></path>
<path xmlns="http://www.w3.org/2000/svg" d="m359.39 254.45c-1.293 0.16797-2.5547 0.48047-3.7773 0.94531-2.6953 0.83984-2.2266 4.9336 0.67188 4.9492 10.973 0.050781 21.789-1.9609 32.746-2.207v-5.0391c-10.496 1.3281-21.629 1.5469-30.867 7.2695-2.2969 1.4219-1.1133 4.4023 1.2695 4.6953 10.297 1.2539 19.281-4.418 29.285-5.668-0.42188-1.5664-0.84766-3.1289-1.2695-4.6953-9.707 4.3945-19.715 7.9609-28.656 13.855-2.2812 1.5-0.88281 5.582 1.9414 4.6055 10.484-3.6328 19.383-11.008 30.547-12.594-0.81641-1.4023-1.6328-2.8047-2.4492-4.207-7.9844 6.3828-17.074 11.07-25.625 16.609-2.7109 1.7578-0.28125 5.9961 2.543 4.3477 10.566-6.1523 20.332-13.715 32.145-17.383-0.81641-1.4023-1.6328-2.8047-2.4492-4.207-6.7656 8.1953-16.621 13.156-25.625 18.5 1.0195 1.3203 2.0352 2.6367 3.0547 3.9531 8.1406-6.9414 16.969-12.398 26.914-16.359-0.81641-1.4023-1.6328-2.8047-2.4492-4.207-5.6289 7.0117-13.477 11.438-20.902 16.293 1.0195 1.3203 2.0352 2.6367 3.0547 3.9531 6.3633-7.25 15.234-10.832 24.078-14.152-0.81641-1.4023-1.6328-2.8047-2.4492-4.207-6.625 6.2891-15.246 9.5664-22.477 15.035-2.5273 1.9141-0.39844 5.918 2.543 4.3477 4.6914-2.5078 9.3359-5.0625 13.855-7.875 2.3945-1.4844 0.85547-5.4258-1.9414-4.6055-6.6914 1.9648-13.121 4.5703-19.949 6.0273-4.4805 0.95312-8.8516 1.0312-12.016 4.6953-1.5312 1.7734-0.11719 5.0625 2.4492 4.207 1.0312-0.34375 1.6133-0.57031 2.4922-1.1992 2.6211-1.8672 0.10547-6.2422-2.543-4.3477-0.42969 0.22656-0.85547 0.45703-1.2852 0.69141l2.4492 4.207c2.7109-3.1406 7.7773-2.9727 11.48-3.7617 6.2461-1.3281 12.152-3.875 18.262-5.668-0.64453-1.5312-1.293-3.0664-1.9414-4.6055-4.5195 2.8125-9.1602 5.3594-13.855 7.875 0.84766 1.4492 1.6914 2.9023 2.543 4.3477 7.5859-5.7383 16.535-9.2188 23.496-15.824 1.7539-1.6641-0.039063-5.1133-2.4492-4.207-9.6328 3.6133-19.371 7.5469-26.305 15.445-1.8047 2.0547 0.53906 5.6016 3.0547 3.9531 7.7695-5.082 16.031-9.7422 21.922-17.086 1.375-1.7148 0.16797-5.25-2.4492-4.207-10.762 4.2812-20.332 10.141-29.137 17.648-2.2109 1.8906 0.63672 5.3906 3.0547 3.9531 9.3516-5.5508 19.609-10.762 26.648-19.285 1.4922-1.8086 0.15625-5.0195-2.4492-4.207-12.254 3.8047-22.383 11.508-33.352 17.887 0.84766 1.4492 1.6914 2.9023 2.543 4.3477 8.9258-5.7852 18.309-10.734 26.648-17.398 2.2305-1.7852-0.30078-4.5156-2.4492-4.207-11.262 1.5977-20 8.9414-30.547 12.594 0.64453 1.5312 1.293 3.0664 1.9414 4.6055 8.9336-5.8906 18.953-9.4648 28.656-13.855 2.2227-1.0039 1.1836-5.0039-1.2695-4.6953-9.8945 1.2344-19.172 6.8984-29.285 5.668 0.42188 1.5664 0.84766 3.1289 1.2695 4.6953 8.457-5.2461 18.723-5.3672 28.328-6.5859 3.1172-0.39844 3.3398-5.1133 0-5.0391-10.957 0.24219-21.773 2.2539-32.746 2.207 0.22266 1.6484 0.44141 3.3008 0.67188 4.9492 1.2227-0.46484 2.4844-0.77734 3.7773-0.94531 3.1562-0.57031 1.8008-5.4297-1.3711-4.832z"></path>
<path xmlns="http://www.w3.org/2000/svg" d="m391.12 272.41c-0.52344-0.41797-1.0469-0.83984-1.5781-1.2578-2.0742-1.6562-5.6641 0.48047-3.9531 3.0547 6.0625 9.1289 14.414 15.875 14.453 27.699 1.5664-0.42188 3.1289-0.84766 4.6953-1.2695-4.5078-9.8086-4.9883-20.809-9.7656-30.547-1.3008-2.6562-5.2383-0.74219-4.6055 1.9414 1.3281 5.6367 3.5586 10.977 4.9219 16.605 1.5234 6.2617-0.10937 13.266-0.60547 19.562-0.19141 2.4531 3.6328 3.5078 4.6953 1.2695 6.4883-13.66 6.3789-34.805-1.5781-47.887-1.2812-2.1055-4.7266-1.2734-4.6953 1.2695 0.12109 10.656 2.8672 22.965 6.0742 33.102 0.60547 1.918 3.6055 2.6914 4.6055 0.60547 4.1602-8.7266 0.089844-18.574 0.03125-27.719-1.6484 0.22266-3.3008 0.44141-4.9492 0.67188 2.8711 8.0469 0.75391 16.609 2.5195 24.879 0.5 2.332 4.4922 2.4922 4.8555 0 1.1172-7.6328-1.0117-15.074-0.22656-22.711-1.6484 0.22266-3.3008 0.44141-4.9492 0.67188 1.9883 6.4453 1.2695 13.215 2.207 19.84 0.30078 2.1523 3.707 2.4531 4.6055 0.60547 2.5898-5.3359 1.2188-10.988 1.918-16.703-1.6484 0.22266-3.293 0.44141-4.9492 0.67188 0.76953 3.2188 0.5625 6.4648 0.85156 9.7227 0.20312 2.2539 3.5117 3.75 4.6953 1.2695 1.6211-3.3945 2.4102-6.6562 3.0898-10.363 0.57812-3.1523-3.9141-4.4922-4.8633-1.3398-1.082 3.6406-1.8984 6.9531-1.6641 10.746 0.089844 1.4805 1.5703 3.0625 3.1875 2.4297 2.5508-0.99609 2.875-1.1992 4.8906-3.1641 2.3281-2.2734-1.2383-5.8359-3.5625-3.5625-0.88672 0.625-1.7852 1.25-2.6641 1.875 1.0625 0.8125 2.125 1.6172 3.1875 2.4297-0.21484-3.5312 0.50781-6.1328 1.4844-9.4062-1.6211-0.44141-3.2383-0.89062-4.8633-1.3398-0.59766 3.2539-1.1133 6.0898-2.5781 9.1602 1.5664 0.42188 3.1289 0.84766 4.6953 1.2695-0.33203-3.7695-0.14453-7.3711-1.0312-11.059-0.71875-2.9883-4.625-1.9609-4.9492 0.67188-0.55078 4.4844 0.79688 9.9688-1.2305 14.156 1.5352 0.20312 3.0664 0.40234 4.6055 0.60547-0.94531-6.7305-0.17578-13.273-2.207-19.84-0.88281-2.8516-4.6641-2.0859-4.9492 0.67188-0.74219 7.1758 1.457 14.223 0.40625 21.371h4.8555c-1.7773-8.3281 0.39453-16.723-2.5195-24.879-0.92578-2.5938-4.9688-2.2969-4.9492 0.67188 0.050781 7.9258 4.2305 17.684 0.66016 25.18 1.5352 0.20312 3.0664 0.40234 4.6055 0.60547-3.0273-9.5742-5.7734-21.809-5.8906-31.766-1.5664 0.42188-3.1289 0.84766-4.6953 1.2695 6.9414 11.418 7.2656 30.816 1.5781 42.797 1.5664 0.42188 3.1289 0.84766 4.6953 1.2695 0.46484-5.918 1.7266-12.055 0.85156-17.984-0.99219-6.7461-3.793-12.914-5.3555-19.523-1.5312 0.64453-3.0664 1.293-4.6055 1.9414 4.75 9.6992 5.25 20.727 9.7656 30.547 1.1016 2.332 4.7227 1.0703 4.7109-1.2969-0.050782-13.027-8.3867-20.062-15.145-30.238-1.3203 1.0195-2.6367 2.0352-3.9531 3.0547 0.52344 0.41797 1.0469 0.83984 1.5781 1.2578 2.5039 2.0039 6.0938-1.5352 3.5547-3.5664z"></path>
<path xmlns="http://www.w3.org/2000/svg" d="m369.82 296.55c0 2.3438 0.082032 4.6406 0.40625 6.9688 1.6172-0.44141 3.2383-0.89062 4.8555-1.3398-0.27344-1.0391-0.40625-2.1016-0.62891-3.1484-0.59375-2.8359-4.9492-2.1211-4.9492 0.67188v3.1484h5.0391c-0.066407-1.6289-0.33203-3.1836-0.71875-4.7617-0.67578-2.7617-5.0312-2.1758-4.9492 0.67188 0.066406 2.2578 0.54297 4.3086 1.6016 6.3086 1.5234 2.8711 5.875 0.32422 4.3477-2.543-0.64062-1.2109-0.875-2.4023-0.91797-3.7695-1.6484 0.22266-3.3008 0.44141-4.9492 0.67188 0.28125 1.1484 0.49219 2.2422 0.53906 3.4258 0.125 3.2344 5.0391 3.2578 5.0391 0v-3.1484c-1.6484 0.22266-3.3008 0.44141-4.9492 0.67188 0.21484 1.0469 0.35937 2.1094 0.62891 3.1484 0.84766 3.2344 5.2969 1.7773 4.8555-1.3398-0.26172-1.8594-0.22266-3.7578-0.22266-5.6289 0.003906-3.2578-5.0312-3.2578-5.0273-0.007813z"></path>
<path xmlns="http://www.w3.org/2000/svg" d="m409.58 321.47c0.76172 4.1914 1.582 8.3828 2.207 12.594 0.47266 3.2031 5.332 1.8398 4.8633-1.3398-0.625-4.2109-1.4453-8.4023-2.207-12.594-0.58203-3.1953-5.4375-1.8398-4.8633 1.3398z"></path>
<path xmlns="http://www.w3.org/2000/svg" d="m398.49 323.92c2.8711-2.1562 6.1836-3.043 9.75-2.8047 3.25 0.21484 3.2305-4.8203 0-5.0391-4.3359-0.29297-8.8008 0.87109-12.293 3.4922-2.5664 1.9219-0.058593 6.3047 2.543 4.3516z"></path>
<path xmlns="http://www.w3.org/2000/svg" d="m408.87 316.7c-0.9375 0.019531-1.75 0.125-2.5273 0.66016 0.64453-0.085937 1.2891-0.17188 1.9414-0.25-5.3945-1.4609-10.586 1.8555-13.547 6.1914-1.8398 2.6914 2.5273 5.2109 4.3477 2.543 1.125-1.6484 2.707-2.9688 4.5703-3.6992 0.83203-0.32422 1.7695-0.49219 2.6562-0.35938 1.0039 0.15625 1.7148-0.03125 2.5703-0.050781 3.2305-0.066406 3.2305-5.1055-0.011718-5.0352z"></path>
<path xmlns="http://www.w3.org/2000/svg" d="m407.69 319.89c0.31641 0.94531 0.62891 1.8906 0.94531 2.8359 1.4062-0.81641 2.8125-1.6328 4.2109-2.4492-0.10547-0.10547-0.20703-0.21094-0.31641-0.31641-2.3125-2.3125-5.7344 1.1641-3.5625 3.5625 0.64844 0.71875 1.2383 1.4844 1.8906 2.207 2.1875 2.4141 5.7383-1.1602 3.5625-3.5625-0.64844-0.71875-1.2383-1.4844-1.8906-2.207l-3.5625 3.5625c0.10547 0.10547 0.20703 0.21094 0.31641 0.31641 1.7227 1.7227 5.0273 0 4.2109-2.4492-0.31641-0.94531-0.62891-1.8906-0.94531-2.8359-1.0195-3.0703-5.8867-1.7539-4.8594 1.3359z"></path>
<path xmlns="http://www.w3.org/2000/svg" d="m407.28 322.34c1.8398 1.3906 3.2656 3.1797 3.8789 5.4219 0.85547 3.1289 5.7188 1.7969 4.8633-1.3398-0.98438-3.5781-3.2852-6.2383-6.1953-8.4336-2.6016-1.9531-5.1055 2.4297-2.5469 4.3516z"></path>
<path xmlns="http://www.w3.org/2000/svg" d="m403.92 319.58c1.2305-1.543 1.3203-2.1055 0.28906-1.6992-0.36328 0.082032-0.72656 0.16797-1.0898 0.24609-1.0312 0.23828-1.9492 0.71484-2.875 1.2031-2.4453 1.3008-4.5586 3.293-6.3789 5.3516-2.1445 2.4219 1.4062 6 3.5625 3.5625 2.0547-2.3242 4.4805-4.6758 7.5859-5.3867 2.4297-0.55469 4.3594-1.8438 3.7695-4.6211-0.6875-3.1758-5.5391-1.8281-4.8633 1.3438z"></path>
<path xmlns="http://www.w3.org/2000/svg" d="m393.21 289.98c1.6172 4.7617 0.85547 10.188 0.22266 15.074-0.41797 3.2148 4.625 3.1758 5.0391 0 0.69141-5.3438 1.3672-11.203-0.40625-16.414-1.0352-3.0586-5.9062-1.7461-4.8555 1.3398z"></path>
<path xmlns="http://www.w3.org/2000/svg" d="m392.58 289.04c1.7266 8.6055-0.57812 17.543-1.8906 26.059-0.48828 3.1758 4.3633 4.5391 4.8555 1.3398 1.457-9.4648 3.8125-19.172 1.8906-28.73-0.63672-3.1875-5.4961-1.8359-4.8555 1.332z"></path>
<path xmlns="http://www.w3.org/2000/svg" d="m392.18 283.96c0.085938 6.0273 1.1953 11.945 1.5781 17.949 0.20703 3.2227 5.2461 3.2461 5.0391 0-0.38281-6-1.4922-11.926-1.5781-17.949-0.046875-3.2461-5.0859-3.25-5.0391 0z"></path>
<path xmlns="http://www.w3.org/2000/svg" d="m622.52 402.1c-19.32-0.10156-38.617-1.1602-57.938-1.2578-6.6094-0.035156-9.9844 8.2578-5.3438 12.902 0.13672 0.13672 0.28125 0.28125 0.41797 0.41797 1.7852-4.3008 3.5625-8.6016 5.3438-12.902-1.582-0.16797-3.0391-0.16016-4.6211 0-9.5977 0.97266-9.6992 16.098 0 15.113 1.582-0.16016 3.0391-0.16797 4.6211 0 6.8203 0.72656 9.6484-8.6016 5.3438-12.902-0.13672-0.14062-0.28125-0.28125-0.41797-0.41797-1.7852 4.3008-3.5625 8.6016-5.3438 12.902 19.32 0.10156 38.617 1.1602 57.938 1.2578 9.75 0.054687 9.7422-15.062 0-15.113z"></path>

      </g>
     <g id="IconSvg_iconCarrier">
      <defs xmlns="http://www.w3.org/2000/svg">
  <clipPath id="a">
   <path d="m148.09 148.09h503.81v503.81h-503.81z"></path>
  </clipPath>
 </defs>
<g xmlns="http://www.w3.org/2000/svg" clip-path="url(#a)">
  <path transform="matrix(5.0381 0 0 5.0381 148.09 148.09)" d="m81.254 50.099c0 19.939-16.164 36.102-36.102 36.102s-36.102-16.164-36.102-36.102 16.164-36.102 36.102-36.102 36.102 16.163 36.102 36.102" fill="none" stroke="#000000" stroke-miterlimit="10" stroke-width="3"></path>
 </g>
<path xmlns="http://www.w3.org/2000/svg" transform="matrix(5.0381 0 0 5.0381 148.09 148.09)" d="m75.174 50.099c0 16.581-13.441 30.022-30.022 30.022s-30.022-13.441-30.022-30.022 13.441-30.022 30.022-30.022 30.022 13.441 30.022 30.022" fill="none" stroke="#000000" stroke-miterlimit="10"></path>
<path xmlns="http://www.w3.org/2000/svg" d="m556.91 375.51c21.703-0.035156 43.395-0.50781 65.098-0.54297 9.75-0.015625 9.75-15.129 0-15.113-21.703 0.035157-43.395 0.50781-65.098 0.54297-9.7461 0.015625-9.7461 15.129 0 15.113z"></path>
<path xmlns="http://www.w3.org/2000/svg" d="m616.12 373.29c7.6641 8.5586 2.7852 23.625 1.0469 33.605-1.6641 9.5312 12.906 13.602 14.574 4.0156 2.8516-16.375 7.3242-34.613-4.9336-48.305-6.5117-7.2773-17.164 3.4492-10.688 10.684z"></path>
<path xmlns="http://www.w3.org/2000/svg" d="m373.9 298.9c-1.5977-8.0859-3.7891-17.035-11.547-21.199-6.1016-3.2734-11.941 1.8633-14.391 6.9219-10.312 21.328 14.48 46.977 18.895 66.488 1.5312-0.64453 3.0664-1.293 4.6055-1.9414-7.4531-12.312-13.18-27.852-25.941-35.66-5.9336-3.6328-15.488-3.5703-18.516 3.8125-5.4961 13.418 2.2266 28.406 9.1328 39.727 3.9336 6.4531 8.5664 12.715 13.227 18.668 6.3945 8.168 16.688 17.234 16.863 28.336 0.83984-0.83594 1.6758-1.6836 2.5195-2.5195-24.984 0.90625-40.129-34.676-57.34-48.309-13.059-10.344-18.742 1.0664-17.375 13.66 2.5352 23.426 17.824 40.672 34.641 55.914 5.1055 4.625 10.992 8.3438 16.125 12.957 0.82031 0.84766 1.6406 1.6836 2.457 2.5195 2.543 8.5898 0.44922 11.504-6.293 8.7461-5.0078-0.80469-9.3945-3.2539-13.637-5.9062-16.355-10.176-26.066-28.277-34.844-44.699-5.2227-9.7695-22.016-44.289-37.484-30.848-14.09 12.246-7.5664 43.836-3.5117 58.359 7.4727 26.738 25.68 50.176 48.543 65.527 21.402 14.379 50.168 28.027 76.492 22.051 3.168-0.71875 1.8242-5.5781-1.3398-4.8633-27.805 6.3086-59.477-10.902-80.852-27.492-24.242-18.793-39.406-48.582-42.125-78.875-0.76172-8.5195 0.25781-17.129 2.9727-25.227 7.0625-21.074 26.945 13.012 31.102 20.48 10.938 19.652 23.27 45.465 46.004 54.074 6.4883 2.4492 15.652 5.2539 22.117 1.3086 4.75-2.9102 0.97266-10.637-1.4453-13.598-7.5977-9.2812-18.152-15.598-26.867-23.754-10.211-9.543-19.387-20.52-23.992-33.871-2.4727-7.168-4.6211-15.844-2.8203-23.383 2.2305-9.3438 23.844 16.32 25.941 18.859 10.664 12.891 24.762 32.078 43.523 31.398 1.3555-0.050781 2.5391-1.1133 2.5195-2.5195-0.13281-8.2812-4.7461-14.688-9.6289-21.074-7.1992-9.4258-14.641-18.523-21.145-28.469-3.5938-5.4922-6.3672-11.289-8.5312-17.488-2.8047-8.0664-2.7695-25.598 11.02-19.16 11.574 5.4062 17.855 23.477 24.137 33.855 1.5078 2.4922 5.2305 0.82812 4.6055-1.9414-2.9609-13.109-10.148-24.207-15.855-36.215-3.6523-7.6797-5.7383-16.211-4.0391-24.641 1.9883-9.8711 12.816-3.3789 15.195 3.0234 0.98828 2.6562 1.4922 5.5273 2.0391 8.2969 0.61719 3.1953 5.4727 1.8438 4.8438-1.332z"></path>
<path xmlns="http://www.w3.org/2000/svg" d="m374.21 512.15c54.004-5.6992 105.63-49.586 120.04-101.95 4.5352-16.496-3.2656-38.223-22.922-27.332-12.34 6.8359-22.242 21.559-32.023 31.512-14.625 14.898-30.277 27.336-50.992 32.109 0.94531 1.2305 1.8945 2.4688 2.8398 3.6992 12.16-18.203 25.109-35.668 36.531-54.371 7.4805-12.262 16.816-27.996 11.426-42.699-3.7344-10.176-13.996-3.7695-19.164 1.0078-14.223 13.156-23.469 30.984-37.676 44.324 1.4375 0.59375 2.8672 1.1875 4.3008 1.7852 3.4297-26.863 38.023-52.668 28.414-81.812-6.6914-20.293-32.812 25.191-34.746 28.574 1.5352 0.64453 3.0664 1.293 4.6055 1.9414 3.2695-21.457 25.418-52.422 6.7812-72.227-11.844-12.59-17.078 23.355-19.723 24.273-3.0469 1.0547-1.7383 5.9258 1.3398 4.8555 6.1445-2.125 8.2891-18.871 11.461-23.938 4.5352-7.2383 8.8633 13.043 8.9062 14.41 0.21094 6.5547-1.9961 13.23-3.9062 19.422-3.2812 10.637-8.0312 20.789-9.7188 31.867-0.40625 2.6719 3.082 4.6016 4.6055 1.9414 5.5938-9.7773 11.48-19.477 18.988-27.926 2.5273 0.93359 5.0586 1.8594 7.5859 2.793 0.074219 3.8555-0.38672 7.6641-1.3789 11.418-1.4102 6.8711-4.625 13.383-7.6836 19.629-7.1836 14.68-18.445 28.207-20.566 44.793-0.29688 2.332 2.8711 3.125 4.3008 1.7852 10.746-10.09 19.148-22.047 28.336-33.5 2.9961-3.7344 5.9844-7.4023 9.3398-10.82 2.5781-2.6367 8.7227-8.7266 11.723-0.55078 1.4766 4.0117 0.33594 8.6055-0.62109 12.559-2.9414 12.148-11.062 23.23-17.543 33.715-9.4102 15.234-20.328 29.348-30.266 44.234-1.3008 1.9414 0.82812 4.1602 2.8398 3.6992 23.09-5.3242 39.836-19.781 56.074-36.309 9.125-9.3008 17.547-20.156 28.148-27.824 19.781-14.305 16.133 20.113 13.543 28.34-14.734 46.895-64.707 86.41-113.2 91.531-3.1914 0.33984-3.2266 5.3789 0 5.0391z"></path>
<path xmlns="http://www.w3.org/2000/svg" d="m498.59 398.58c-1.293 9.6523-5.168 18.703-6.0156 28.445-0.17969 2.0859 2.9688 3.4922 4.3008 1.7852 3.7695-4.8398 5.2109-10.785 8.6016-15.824-1.5664-0.42188-3.1289-0.85547-4.6953-1.2812 0.72656 5.8945-1.4727 11.316-3.1953 16.848-0.96875 3.1094 3.8945 4.4297 4.8633 1.3398 1.8555-5.9648 4.1523-11.84 3.3711-18.184-0.30078-2.4492-3.2109-3.4727-4.6953-1.2695-3.1406 4.6758-4.3359 10.352-7.8125 14.809 1.4297 0.59766 2.8672 1.1875 4.3008 1.7852 0.83984-9.6914 4.7266-18.801 6.0156-28.445 0.43359-3.2148-4.6172-3.1758-5.0391-0.007813z"></path>
<path xmlns="http://www.w3.org/2000/svg" d="m414.47 529.73c3.7969 1.9883 7.1953 2.5703 11.395 2.0352-1.1172-8.2461-2.2305-16.488-3.3438-24.738-8.5195 3.3672-15.91 9.2188-17.121 18.801-1.4062 11.141 9.7656 17.105 19.324 15.383 7.0625-1.2812 13.855-5.1406 19.949-8.8281 4.6562-2.8164 8.6562-6.7109 13.055-9.8984 4.2969-3.1094 9.0273-5.2656 13.254-8.5781 5.4141-4.2422 4.4141-13.391 0-17.809-5.2891-5.2969-12.41-4.2227-17.809 0-3.0977 2.4297-7.0742 3.8594-10.305 6.1953-3.707 2.6836-7.1406 5.7266-10.906 8.3438-2.207 1.5273-4.7266 2.7344-7.1133 3.9648-0.69141 0.32422-1.3711 0.66016-2.0508 0.99219-5.3242 2.1875-2.3125-1.2812 1.8672 1.8281 1.9297 2.5078 3.8594 5.0195 5.7891 7.5273-2.3086 7.1641-2.8828 9.4883-1.7344 6.9688 1.6836-0.89844 1.8477-1.1016 0.49219-0.59766 5.2969-2.0977 9.2461-6.082 9.2461-12.152 0-6.2188-5.7695-13.453-12.594-12.594-3.3203 0.10547-2.8828 0.57031 1.3203 1.4062-14.387-7.4961-27.125 14.242-12.715 21.75z"></path>
<path xmlns="http://www.w3.org/2000/svg" d="m446.74 536.27c3.4961-2.9727 8.3398-4.4688 12.211-6.918 5.8125-3.6719 11.34-8.4531 16.203-13.297 9.2188-9.1797 16.887-20.051 24.566-30.516 9.6328-13.121-12.242-25.652-21.746-12.711-6.4805 8.8281-13.09 17.469-20.637 25.418-8.332 8.7773-19.391 12.543-28.41 20.211-12.398 10.531 5.5117 28.258 17.812 17.812z"></path>
<path xmlns="http://www.w3.org/2000/svg" d="m481.2 443.51c-16.711 15.215-29.852 31.633-48.871 44.652-16.73 11.461-44.488 28.34-65.773 25.16v24.293c6.0391-2.332 11.117-3.9258 17.75-3.6523 16.246 0.67188 16.184-24.52 0-25.191-8.5703-0.35156-16.449 1.4648-24.445 4.543-10.168 3.9141-13.703 22.25 0 24.293 56.672 8.4453 102.02-42.516 139.15-76.301 12.035-10.938-5.8281-28.699-17.812-17.797z"></path>
<path xmlns="http://www.w3.org/2000/svg" d="m389.09 531.94c0.625-0.36328 1.2656-0.69141 1.9258-0.98438-1.2227 0.53906-1.1172 0.53906 0.3125 0.011719 1.5977-0.53906 3.2539-0.90625 4.9062-1.25 0.83594-0.16797 1.6758-0.31641 2.5195-0.44141-1.2695 0.19531-1.1523 0.20703 0.33594 0.050781 1.4727-0.125 2.9414-0.11719 4.418-0.070313 6.8672 0.23828 12.594-5.9062 12.594-12.594 0-7.0312-5.7383-12.359-12.594-12.594-9.1914-0.31641-19.055 1.6914-27.141 6.1328-6.0117 3.293-7.918 11.438-4.5195 17.23 3.543 6.0273 11.227 7.8125 17.242 4.5078z"></path>
<path xmlns="http://www.w3.org/2000/svg" d="m344.63 548.46c8.082 1.0117 15.125 3.2383 23.375 2.9922 8.918-0.25781 17.91-1.5938 26.766-2.6094 12.551-1.4375 27.625-2.7461 38.398-9.9766 13.41-8.9922 0.81641-30.828-12.711-21.746-9.7539 6.543-25.262 6.5234-36.465 7.7227-13.98 1.5078-25.598 0.15625-39.363-1.5781-16.09-2.0156-15.895 23.195 0 25.195z"></path>
<path xmlns="http://www.w3.org/2000/svg" d="m490.55 368.55c12.715 30.238-11.027 59.293-13.043 88.277-1.1289 16.227 24.07 16.117 25.191 0 0.59766-8.6523 6.1367-17.191 8.9961-25.328 2.8555-8.125 4.3594-17.023 5.2188-25.574 1.457-14.473 3.7266-30.27-2.0703-44.074-6.2031-14.738-30.586-8.2695-24.293 6.6992z"></path>
<path xmlns="http://www.w3.org/2000/svg" d="m482.14 440.68c3.5078-2.8516 0.40625-0.69141-0.59766-0.082031 5.7422 5.75 11.488 11.492 17.23 17.23 0.62109-1.0938 0.38281-0.875-0.71094 0.66016-7.0195-4.0859-14.031-8.168-21.055-12.254-0.29297 0.71875-0.52344 1.4375-0.62891 2.207-0.48828 3.5312-0.60937 6.4922 1.2734 9.7031 1.6484 2.8164 4.3789 4.9336 7.5234 5.793 5.9648 1.6328 14.551-1.9883 15.496-8.7969 0.10547-0.77734 0.33203-1.4844 0.62891-2.207 2.1016-5.1523-1.3555-11.633-5.7891-14.227-4.5898-2.6836-11.637-2.293-15.262 1.9688-1.1953 1.3945-2.3828 2.8047-3.2305 4.4375-2.625 5.0664-2.1875 11.109 1.9688 15.262 3.9453 3.9531 10.434 4.9141 15.262 1.9688 2.0352-1.2305 3.7891-2.3008 5.6992-3.8594 5.332-4.3359 4.4883-13.324 0-17.809-5.2188-5.2109-12.5-4.3242-17.809 0.003906z"></path>
<path xmlns="http://www.w3.org/2000/svg" d="m499.37 380.2c5.3711 26.094 0.33594 65.129-16.906 86.613-10.062 12.535 7.6445 30.484 17.809 17.809 23.438-29.195 30.809-75.098 23.398-111.12-3.2812-15.898-27.566-9.1523-24.301 6.7031z"></path>
<path xmlns="http://www.w3.org/2000/svg" d="m486.47 440.39c-1.5078 2.2305-2.5938 4.707-4.0977 6.9258-3.8477 5.6992-1.1172 13.934 4.5156 17.23 6.2109 3.6406 13.395 1.1602 17.23-4.5156 1.5078-2.2227 2.5938-4.6953 4.0977-6.9258 3.8477-5.6992 1.1172-13.934-4.5156-17.23-6.2109-3.6484-13.398-1.1641-17.23 4.5156z"></path>
<path xmlns="http://www.w3.org/2000/svg" d="m431.37 324.32c3.7188 8.2578 9.9805 14.465 15.422 21.574 5.582 7.3047 10.086 14.496 18.066 19.473 9.9688 6.2188 20.621-3.9414 18.504-14.223-2.8281-13.707-15.395-21.676-18.895-34.637-6.1719 4.7422-12.34 9.4805-18.504 14.223 14.801 8.3945 19.211 28.824 34.324 36.844 11.887 6.3086 22.199-5.9688 17.23-17.23-4.1445-9.4062-11.02-17.523-14.73-27.172-0.41406-1.7734-0.57031-1.9062-0.46484-0.39844-15.625 2.1953-20.453 5.8359-14.504 10.918 2.7344 2.793 4.7812 6.3281 6.8828 9.5977 5.1953 8.0859 8.7305 17.195 14.605 24.801 9.5859 12.426 30.363 1.6641 21.746-12.711-3.457-5.7695-5.6289-11.895-8.1719-18.086-6.0859-14.809-30.469-8.332-24.293 6.6953 3.3594 8.1719 6.1602 16.5 10.723 24.105 7.2461-4.2383 14.5-8.4727 21.746-12.711-9.793-12.695-26.691-61.602-49.934-43-14.488 11.594 9.7695 39.625 14.645 50.672 5.7422-5.7422 11.488-11.488 17.23-17.23-6.2188-3.3008-10.242-12.656-14.934-17.938-6.1523-6.9219-11.145-14.234-19.391-18.906-9.6094-5.4453-21.41 3.457-18.504 14.223 3.5469 13.125 16.238 21.719 18.895 34.637 6.1719-4.7422 12.34-9.4805 18.504-14.223-4.6367-2.8906-7.3516-8.2422-10.602-12.484-4.9062-6.418-10.5-12.086-13.855-19.523-6.6641-14.793-28.367-1.9688-21.742 12.711z"></path>
<path xmlns="http://www.w3.org/2000/svg" d="m491.55 314.93c-0.42188-1.0469-0.83984-2.1016-1.2578-3.1484-5.1641 5.1641-10.332 10.328-15.496 15.492 5.4258 1.3086 9.0898 10.914 11.43 15.41 4.8828 9.3867 8.0312 19.324 10.316 29.633 3.5234 15.855 27.809 9.1328 24.293-6.6953-4.5156-20.328-15.699-56.93-39.344-62.645-8.4297-2.0352-19.266 6.0664-15.496 15.492 0.42187 1.0469 0.83984 2.1016 1.2578 3.1484 5.957 14.902 30.332 8.4062 24.297-6.6875z"></path>
<path xmlns="http://www.w3.org/2000/svg" d="m407.83 301.36c5.8281 5.7539 12.852 9.957 19.598 14.508 7.2383 4.8906 12.922 11.637 20.738 15.801 11.664 6.2109 22.555-5.9648 17.23-17.23-0.40234-1.0117-0.92578-1.9531-1.5781-2.8359-8.7109-13.645-30.527-1.0234-21.746 12.711 0.64453 0.875 1.1641 1.8242 1.5781 2.8359 5.7422-5.7422 11.488-11.488 17.23-17.23-6.3867-3.4023-11.391-8.6992-17.09-13.094-5.9492-4.5898-12.781-7.9805-18.152-13.273-11.57-11.414-29.391 6.3906-17.809 17.809z"></path>
<path xmlns="http://www.w3.org/2000/svg" d="m443.5 291.83c0.003906-0.16016 0.003906-0.32422 0.011719-0.48828-1.2305 2.9688-2.457 5.9414-3.6875 8.9062-7.6445 6.9922-12.973 1.3164-5.6484 4.5273 2.7852 1.2227 5.5 2.6055 8.1914 4.0273 8.6797 4.5781 15.961 11.148 23.406 17.438 12.316 10.418 30.234-7.3086 17.809-17.809-11.078-9.3672-21.984-18.461-35.16-24.703-10.363-4.9062-29.719-10.219-30.113 8.1016-0.34766 16.25 24.844 16.223 25.191 0z"></path>
<path xmlns="http://www.w3.org/2000/svg" d="m416.8 281.29c-3.9609 0.58594-4.4805 1.0469-1.5352 1.4062 3.1484 0.67188 6.2188 1.8633 9.2383 2.9414 5.2188 1.8633 9.957 4.6211 14.672 7.5 12.625 7.7227 21.125 21.844 34.184 28.457 10.746 5.4414 24.262-5.9102 17.23-17.23-4.0195-6.4727-9.3047-10.746-15.195-15.457-5.0898 6.5938-10.176 13.191-15.262 19.781 6.5391 4.2656 10.449 10.082 15.008 16.262 9.5234 12.93 31.398 0.38672 21.746-12.711-7.1953-9.7656-13.75-18.586-24.035-25.301-11.859-7.7422-26.492 10.797-15.262 19.781 3.9297 3.1484 8.543 6 11.254 10.363 5.7422-5.7422 11.488-11.488 17.23-17.23-7.3672-3.7266-13.617-12.168-19.844-17.59-7.4453-6.4844-15.598-12.141-24.453-16.516-10.75-5.3164-26.098-12.16-37.684-6.1953-14.461 7.4258-1.7148 29.16 12.707 21.738z"></path>
<path xmlns="http://www.w3.org/2000/svg" d="m239.4 345.51c-0.62891 0.31641-1.2578 0.62891-1.8906 0.94531 5.7422 5.7422 11.488 11.488 17.23 17.23 11.34-20.816 21.266-38.91 38.449-55.707 6.6758-6.5195 14.246-11.91 22.227-16.688 3.6211-2.168 7.4023-4.0391 11.18-5.8984 0.98438-0.48438 11.273-2.4492 7.5781-4.0977 14.699 6.5547 27.527-15.148 12.711-21.75-18.258-8.1367-39.379 6.5078-54.238 16.48-28.258 18.957-43.852 45.934-59.66 74.945-6.2461 11.465 6.0352 22.832 17.23 17.23 0.62891-0.31641 1.2578-0.62891 1.8906-0.94531 14.539-7.2617 1.7773-28.992-12.707-21.746z"></path>
<path xmlns="http://www.w3.org/2000/svg" d="m332.78 265.83c-18.512 7.2305-100.32 76-62.215 91.941 11.281 4.7148 25.477-9.4453 32.945-16.105 9.25-8.2461 26.172-21.34 18.617-35.402-7.6914-14.312-29.438-1.5938-21.75 12.711 1.082-8.5508 0.71094-11.383-1.1289-8.5-1.4453 1.793-3.1133 3.4258-4.7188 5.0742-2.8281 2.8867-5.8359 5.5977-8.8281 8.3047-1.8906 1.7031-3.8086 3.3594-5.707 5.0469-1.2344 1.0898-2.6289 1.9102-4.0352 2.7812-3.7539 2.3281-2.4141 0.24219 0.41406 1.4219 2.5078 1.9297 5.0195 3.8594 7.5273 5.7891 0.50391 7.0781 1.7969 7.8047 3.8906 2.1797 2.293-3.9062 4.8672-7.6484 7.6992-11.18 4.3438-5.4102 9.7695-10.066 14.691-14.938 7.9844-7.9062 18.637-20.668 29.301-24.832 14.949-5.8438 8.4453-30.211-6.7031-24.293z"></path>
<path xmlns="http://www.w3.org/2000/svg" d="m285.21 298.36c-9.7188-9.8125-21.469-0.035157-28.277 7.6992-6.0352 6.8555-13.844 16.098-14.008 25.766-0.26562 16.254 24.922 16.227 25.191 0 0.023438-1.4961-0.96875 3.8281 0.097657 0.90234-1.4492 4 0.25781-0.10547 0.83203-1.0664 0.63672-1.0742 1.3398-2.1016 2.0469-3.1289 0.37891-0.54297 0.76562-1.082 1.1602-1.6211 2-2.7539-1.6172 1.9961 0.53516-0.69141 1.8203-2.2734 3.7773-4.4336 5.8555-6.4727 0.75-0.74219 1.5469-1.4297 2.3633-2.1016-1.6758 1.2539-2.0156 1.543-1.0039 0.86328 0.15234-0.089844 0.30859-0.17578 0.45703-0.26172-4.1602 2.2734-8.5078 1.5781-13.055-2.0703 11.434 11.547 29.246-6.2734 17.805-17.816z"></path>
<path xmlns="http://www.w3.org/2000/svg" d="m226.37 418.53c-8.2305 24.688 21.34 60.469 35.137 77.914 16.047 20.289 47.359 47.035 74.941 47.293 16.254 0.15625 16.238-25.035 0-25.191-19.07-0.17578-39.715-21.949-51.867-34.098-7.8047-7.793-38.613-45.137-33.918-59.219 5.1484-15.461-19.184-22.027-24.293-6.6992z"></path>
<path xmlns="http://www.w3.org/2000/svg" d="m231.72 432.79c21.844 53.965 66.266 99.129 127.07 104.64 16.184 1.4766 16.043-23.734 0-25.191-48.5-4.4102-85.531-43.543-102.79-86.16-6.0078-14.852-30.383-8.3672-24.285 6.707z"></path>
<path xmlns="http://www.w3.org/2000/svg" d="m327.77 523.84c-0.82813 1.6914-1.582 3.4062-2.5195 5.0391 3.6289-2.0742 7.25-4.1523 10.879-6.2383h-0.31641c2.9688 7.1758 5.9414 14.34 8.9062 21.504 1.6133-2.0664 3.1328-3.7695 3.5586-6.4922 1.0547-6.7812-1.6172-13.523-8.7969-15.496-6.0391-1.6641-14.434 2.0039-15.492 8.7969 0.97266-1.5352 1.9492-3.0781 2.9258-4.6133-2.8555 3.6719-4.5508 7.4961-3.2383 12.262 1.4844 5.4023 6.543 9.2383 12.148 9.2383h0.31641c4.4102 0 8.6758-2.3945 10.879-6.2383 0.9375-1.6328 1.6914-3.3438 2.5195-5.0391 3.0195-6.1602 1.7227-13.566-4.5195-17.23-5.6133-3.2891-14.234-1.6562-17.25 4.5078z"></path>
<path xmlns="http://www.w3.org/2000/svg" d="m224.98 403.3c-0.10937 2.4102-0.21484 4.8281-0.31641 7.2383 4.9492-0.67188 9.8945-1.3398 14.844-2.0039-1.3008-7.6133 1.1094-15.027 1.8438-22.551 0.23047-2.3828 4.418-21.547 4.918-21.367-1.7578-1.7578-3.5156-3.5156-5.2734-5.2734 0.76172 2.0547-0.89844 5.3711-1.5781 7.3164-2.1797 6.2617-4.0312 12.559-5.4414 19.039-2.457 11.32-1.9844 22.789 0.085938 34.098 1.6641 9.0742 13.977 5.7852 14.844-2.0039 0.52344-4.6836 0.44141-9.1406 0.31641-13.855-4.9492 0.67188-9.8945 1.3359-14.844 2.0039 0.57031 3.2852 1.1172 6.5234 1.8906 9.7656 2.2578 9.4883 16.832 5.4609 14.574-4.0156-0.76953-3.2383-1.3203-6.4844-1.8906-9.7578-1.4727-8.5-15.074-6.3828-14.844 2.0039 0.125 4.7109 0.20703 9.168-0.31641 13.855 4.9492-0.67187 9.8945-1.3398 14.844-2.0039-3.1797-17.367 1.5586-32.004 6.3945-48.391 1.9844-6.7305 0.97266-21.684-10.309-17.906-9.3008 3.1133-13.617 12.281-16.164 21.109-3.6172 12.551-5.8242 29.09-3.6211 41.961 1.4961 8.7578 14.5 6.1406 14.844-2.0039 0.10156-2.4141 0.20703-4.832 0.31641-7.2383 0.43359-9.7656-14.684-9.7227-15.117-0.019531z"></path>
<path xmlns="http://www.w3.org/2000/svg" d="m250.13 364.17c0.28906 0.17969 0.57422 0.36719 0.86719 0.55078-1.1602-2.8477-2.3164-5.6875-3.4727-8.5352-0.1875 0.65625-0.36719 1.3164-0.55078 1.9688-1.9688 7.0234 5.3516 10.977 11.098 8.5352 2.7812-0.058594 5.5625-0.12109 8.3477-0.1875 8.7422 3.082 12.152-9.082 5.8242-13.816-2.0039-1.7031-4.0156-3.4102-6.0273-5.1133-2.4492 4.207-4.9023 8.418-7.3516 12.629 21.914 3.2383 32.359 38.676 41.223 55.488 8.6914 16.488 20.695 29.164 39.07 33.938 9.4453 2.4492 13.445-12.133 4.0195-14.574-42.48-11.027-35.68-82.84-80.297-89.426-6.8203-1.0078-13.492 6.9531-7.3516 12.629 3.0742 2.8398 5.7383 4.9766 9.0898 7.4805 1.9414-4.6055 3.8828-9.2109 5.8242-13.816-7.8281-2.7617-12.59-1.4375-19.992 1.7031 3.6992 2.8477 7.4023 5.6875 11.098 8.5352 0.1875-0.65625 0.36719-1.3164 0.55078-1.9688 0.94141-3.3555-0.60938-6.7148-3.4727-8.5352-0.28906-0.17969-0.57422-0.36719-0.86719-0.55078-8.2539-5.2383-15.824 7.8516-7.6289 13.066z"></path>
<path xmlns="http://www.w3.org/2000/svg" d="m304.52 414.05c2.1797 0.77734 4.6445 4.6055 6.1406 6.2773 2.7148 3.043 5.25 6.2383 8.1562 9.0938 3.6406 3.582 7.8945 6.5664 11.734 9.9414 3.4102 2.9922 5.9922 6.8555 9.2852 9.9102 5.5508 5.1445 14.484 0.10547 12.629-7.3516-0.082032-0.32422-0.15625-0.64062-0.23828-0.95312-2.3516-9.457-16.93-5.4414-14.574 4.0156 0.082031 0.32422 0.15625 0.64062 0.23828 0.95312 4.207-2.4492 8.418-4.9023 12.629-7.3516-3.2227-2.9922-6.0273-6.8125-9.2852-9.9219-4.4023-4.1797-9.5312-7.5078-13.707-11.957-5.7734-6.1406-10.707-14.277-18.988-17.23-9.2031-3.2812-13.129 11.328-4.0195 14.574z"></path>
<path xmlns="http://www.w3.org/2000/svg" d="m304.01 350.4c8.3789 0.57422 19.301 17.789 24.305 23.867 8.8359 10.742 16.82 21.477 28.562 29.262 6.1875 4.1016 11.945-2.625 11.098-8.5352-0.011718-0.089844-0.023437-0.17969-0.039062-0.27734-0.32422-2.2773-2.9961-4.9531-5.2734-5.2734-0.097656-0.015625-0.1875-0.023437-0.27734-0.039062-9.5312-1.3672-13.637 13.199-4.0195 14.574 0.097657 0.015626 0.1875 0.023438 0.27734 0.039063l-5.2734-5.2734c0.011718 0.089843 0.023437 0.17969 0.039062 0.27734 3.6992-2.8477 7.4023-5.6875 11.098-8.5352-13.438-8.918-22.359-23.449-32.84-35.43-7.4531-8.5156-15.527-18.93-27.652-19.758-9.7383-0.68359-9.6719 14.438-0.003907 15.102z"></path>
<path xmlns="http://www.w3.org/2000/svg" d="m357.14 382.48c-15.023-23.195-37.094-44.148-34.234-73.965 0.93359-9.7031-14.191-9.6133-15.113 0-3.1602 32.973 19.637 55.871 36.301 81.586 5.2656 8.1523 18.359 0.58594 13.047-7.6211z"></path>
<path xmlns="http://www.w3.org/2000/svg" d="m329.2 341.27c-0.41797-6.1055-1.0664-12.176-1.2383-18.297-0.25781-9.2656 4.875-18.277 6.6367-27.242 0.85156-4.3438-2.0547-10.137-7.2852-9.5664-8.7578 0.95703-12.113 7.2266-14.855 14.969-2.6211 7.3867-0.80469 22.703-5.2109 28.766 2.1758-1.25 4.3516-2.5 6.5234-3.7422-11.941-0.45703-14.555 7.4062-24.328 13.105-10.617 6.1914-12.09 17.348-10.625 28.777 0.99609 7.7695 12.887 11.09 14.844 2.0117 1.3555-6.293 2.2461-12.641 3.7773-18.895 2.3164-9.4648-12.258-13.48-14.574-4.0195-1.5312 6.2578-2.4219 12.602-3.7773 18.895 4.9492 0.67188 9.8945 1.3398 14.844 2.0117-1.6484-12.816 5.8555-16.324 13.543-24.324 4.4141-4.6016 1.0938-2.6406 6.2969-2.4375 2.8359 0.10547 4.9609-1.5938 6.5234-3.7422 3.0312-4.1719 4.7422-35.996 7.0117-36.242-2.4297-3.1875-4.8555-6.3789-7.2852-9.5664-1.6484 8.3789-5.0117 16.172-6.6133 24.562-1.5625 8.1758 0.10938 16.797 0.67578 24.992 0.66016 9.6562 15.781 9.7148 15.117-0.015625z"></path>
<path xmlns="http://www.w3.org/2000/svg" d="m285.12 348.2c-5.9766 7.2969-4.125 15.008-3.4727 23.609 0.3125 4.1055 3.2031 7.5586 7.5586 7.5586 3.8828 0 7.8711-3.4453 7.5586-7.5586-0.19141-2.5039-0.59766-4.9766-0.87109-7.4727-0.14453-1.3281-0.1875-2.6602-0.17188-4 0.003907-0.35938 0.52344-1.9766 0.089844-1.4492 2.6094-3.1836 3.1289-7.5586 0-10.688-2.6953-2.6953-8.0781-3.1953-10.691 0z"></path>
<path xmlns="http://www.w3.org/2000/svg" d="m408.43 423.41c-0.42188 0.10156-0.83984 0.20703-1.2578 0.31641 1.9414 4.6055 3.8789 9.1992 5.8203 13.805 13.527-7.2461 26.008-19.719 36.797-30.465 11.785-11.73 22.973-22.227 36.254-32.195 7.6992-5.7734 0.17578-18.902-7.6289-13.055-11.773 8.8281-22.184 17.035-32.516 27.648-11.863 12.195-25.426 26.922-40.535 35.016-7.7344 4.1406-2.3359 15.852 5.8203 13.816 0.42188-0.10547 0.83984-0.21484 1.2578-0.31641 9.457-2.3594 5.4453-16.938-4.0117-14.57z"></path>
<path xmlns="http://www.w3.org/2000/svg" d="m481.72 361.06c-6.6133-2.7461-13.613-0.10156-20.586-0.45703-7.0234-0.35937-15.148 0.48047-19.75 6.4492-5.1836 6.7227-7.0742 15.215-12.543 22.121-6.5039 8.2109-14.332 16.793-18.625 26.375-3.9531 8.8047 9.0703 16.5 13.047 7.6289 5.8828-13.121 17.398-23.422 24.992-35.605 3.168-5.0781 2.2539-11.426 9.3398-11.941 4.5586-0.32812 15.98-1.707 20.113 0.003906 8.9922 3.7344 12.879-10.895 4.0117-14.574z"></path>
<path xmlns="http://www.w3.org/2000/svg" d="m420.82 426.59c18.625-16.176 30.809-37.465 51.688-51.398 8.0664-5.3789 0.50781-18.48-7.6289-13.055-10.203 6.8125-19.367 14.652-27.605 23.738-9.1055 10.039-16.848 21.09-27.141 30.023-7.375 6.4141 3.3672 17.059 10.688 10.691z"></path>
<path xmlns="http://www.w3.org/2000/svg" d="m485.1 367.49c0.36328 0.30078 0.72656 0.60547 1.0898 0.90234-6.5859-6.0742-15.383 1.5-11.863 9.1602 2.2773 4.9766 8.2617 3.3867 12.254 5.6289 3.5508 1.9961 4.5078 8.1484 6.7695 11.336 3.707 5.25 11.824 4.8203 13.809-1.8047 0.55469-1.8555 0.25781-3.4258 0-5.2812-0.55469-4.0898-5.7266-6.2578-9.2969-5.2734-4.3633 1.1992-5.8359 5.2188-5.2812 9.2969 0.039063 0.28906 0.082031 0.57422 0.11719 0.86719v-4.0195c-0.039063 0.13281-0.082031 0.26172-0.11719 0.39453 4.6055-0.59766 9.2031-1.2031 13.809-1.8047-3.043-4.3008-4.3242-9.2539-7.8594-13.301-3.9648-4.5391-9.875-6.0117-15.551-6.8633 1.5078 1.1523 3.0117 2.3125 4.5156 3.4727-0.039063-0.097657-0.085938-0.1875-0.125-0.28125-3.9531 3.0547-7.9102 6.1055-11.863 9.1523 0.60547 0.55859 1.2305 1.1094 1.9766 1.4648 3.7148 1.7852 8.1328 1.0547 10.34-2.7148 1.9375-3.3242 0.99219-8.5508-2.7227-10.332z"></path>
<path xmlns="http://www.w3.org/2000/svg" d="m503.41 375.94c0.82813 1.2891-0.035156-0.37891 0.17969-1.7266-0.65625 4.0664 0.98438 8.1172 5.2812 9.2969 3.6367 1.0039 8.6406-1.2031 9.2969-5.2734 0.57422-3.5703 0.29297-6.8125-1.707-9.9141-2.2227-3.4609-6.6719-4.8633-10.34-2.7148-3.4336 2.0078-4.9414 6.8633-2.7109 10.332z"></path>
<path xmlns="http://www.w3.org/2000/svg" d="m427.25 350.76c14.609-5.3047 6.9219 15.801 14.965 21.281 5.0625 3.4492 11.008 1.082 14.191-3.6992 4.4648-6.6797 3.668-13.047 1.9453-20.582-3.6992 2.8477-7.4023 5.6875-11.098 8.5352 3.1953 2.3984 6.3789 4.8164 9.4922 7.3203 0.51562-3.9531 1.0195-7.9102 1.5312-11.871 0.95312-0.23828 1.9141-0.48047 2.8672-0.71484-9.6367 0.80469-9.7188 15.926 0 15.113 1.793-0.15234 3.1875-0.42969 4.7578-1.3438 3.875-2.2578 5.3906-8.7656 1.5312-11.871-4.1172-3.3164-8.3242-6.5078-12.551-9.6836-5.7188-4.293-12.426 2.7461-11.098 8.5352 0.60547 2.6445 1.7422 5.1602 0.41406 7.6836 6.2617 4.6094 9.0547 5.2148 8.3672 1.8086-0.085938-1.0625-0.15234-2.125-0.19531-3.1953-0.24219-4.457-0.66016-8.168-2.457-12.281-4.2969-9.8398-17.383-12.984-26.668-9.6133-9.0977 3.3008-5.1758 17.91 4.0039 14.578z"></path>
<path xmlns="http://www.w3.org/2000/svg" d="m425.91 344.22c1.2812-4.4844 2.6797-8.9219 3.6289-13.492 0.90625-4.3438 0.30078-8.8164 1.043-13.078-3.1523 3.8086-5.7852 4.707-7.8984 2.6836 0.44141 0.39453 0.86719 0.8125 1.2695 1.2539 0.94141 0.98438 1.6211 2.1758 2.3242 3.3359 2.1406 3.5625 2.4531 8.1914 3.9609 12.051 1.4961 3.8359 5.0117 6.4531 9.2969 5.2734 3.6641-1.0078 6.7812-5.457 5.2812-9.2969-3.9062-10-6.3008-25.617-19.668-26.98-7.25-0.73438-9.6523 7.7773-9.6562 13.246-0.003906 7.3516-2.1406 13.965-4.1367 20.98-2.6953 9.3984 11.887 13.379 14.555 4.0234z"></path>
<path xmlns="http://www.w3.org/2000/svg" d="m437.51 325.53c0.22656 0.27344 0.44922 0.54297 0.67188 0.82031-0.67188-1.1367-1.5781-2.0391-2.7109-2.7148-1.3789-1.0195-2.9336-1.0781-4.5586-1.2656-3.5586-0.41797-6.1211 2.6758-7.2852 5.5469 0.94141-2.3164 0.30078-0.83984 0.003906-0.32812-0.62891 1.0898-1.4844 1.3398 0.41797-0.34375 3.9531 3.0469 7.9102 6.1016 11.863 9.1523 0.082032-0.15625 0.16797-0.3125 0.26172-0.45703 4.9414-8.4219-8.1172-16.027-13.047-7.6289-0.10156 0.14453-0.17969 0.30078-0.26562 0.45703-4.0273 7.75 5.4141 14.871 11.871 9.1602 1.6289-1.4414 2.6797-4.0703 3.4648-5.9961-2.4297 1.8477-4.8555 3.6992-7.2852 5.5469 0.16797 0.019531 0.33594 0.039062 0.50781 0.058593-1.2695-0.34375-2.543-0.69141-3.8125-1.0312 0.082031 0.058594 0.15625 0.11719 0.24219 0.17578-0.90625-0.90625-1.8086-1.8086-2.7109-2.7148 0.49219 0.80078 1.1094 1.5078 1.6914 2.2383 2.5742 3.2227 8.0195 2.6641 10.688 0 3.1445-3.1445 2.5625-7.457-0.007813-10.676z"></path>
<path xmlns="http://www.w3.org/2000/svg" d="m408.21 434.77c-1.2812-2.625-4.2734-1.2383-5.8438 0.11719 1.3203 1.0234 2.6367 2.0352 3.9531 3.0469 0.53906-0.9375 1.0312-1.8906 1.5781-2.8359 0.95703-1.6406-0.26172-3.7891-2.1758-3.7891-1.9336 0-3.1172 1.6836-4.3594 2.9609-2.2109 2.293-4.2227 4.7422-6.5547 6.9062-1.9492 1.8086 0.10547 4.7266 2.4492 4.2109 5.9844-1.2891 10.367-5.7852 15.715-8.4453-1.0117-1.3203-2.0312-2.6367-3.0469-3.9531-2.1875 1.7422-4.8711 2.7969-7.3594 4.0156-2.918 1.4258-0.36328 5.7734 2.5391 4.3477 2.9375-1.4375 5.8125-2.7461 8.3828-4.8008 2.3633-1.8789-0.64062-5.1445-3.0469-3.9531-4.9336 2.4375-9.0234 6.75-14.516 7.9297 0.81641 1.4062 1.6328 2.8164 2.4492 4.2109 3.1016-2.8828 5.7148-6.2383 8.8164-9.1328-0.58984 0.24609-1.1875 0.49219-1.7852 0.73438h0.31641c-0.72656-1.2578-1.4492-2.5273-2.1758-3.7891-0.54297 0.9375-1.0312 1.8984-1.5781 2.8359-1.4961 2.5781 1.8477 4.8828 3.9531 3.0469-0.69141-0.37109-1.375-0.75391-2.0664-1.1445 1.4336 2.9453 5.7695 0.39063 4.3555-2.5195z"></path>
<path xmlns="http://www.w3.org/2000/svg" d="m391.14 391.05c2.8555-8.0273 8.5039-14.449 13.602-21.125 5.9922-7.8438 11.348-15.906 18.5-22.793-1.3203-1.0195-2.6367-2.0352-3.9531-3.0547-8.5664 14.344-21.492 25.441-29.285 40.305 1.5352 0.64453 3.0664 1.293 4.6055 1.9414 2.7344-8.2383 10.625-14.125 16.242-20.445 5.7227-6.4336 11-13.012 17.746-18.434 1.6484-1.3242 0.33594-4.5508-1.7852-4.3008-10.219 1.1953-16.641 9.793-22.566 17.426 1.3203 1.0195 2.6367 2.0352 3.9531 3.0547 2.7852-5.2305 5.0039-10.73 7.8945-15.898 1.0781-1.9258 2.7109-3.9492 1.8047-6.1914-1.1992-2.9727-6.082-1.6758-4.8633 1.3398 0.1875 0.45312-3.5312 6.5586-3.707 6.9062-1.8906 3.7422-3.5 7.6016-5.4805 11.305-1.2852 2.4141 2.1367 5.4023 3.9531 3.0547 4.7578-6.1328 10.617-14.969 19-15.949-0.59375-1.4375-1.1836-2.8672-1.7852-4.3008-8.1953 6.5781-14.445 14.941-21.539 22.621-5.3555 5.8008-11.195 10.797-13.75 18.48-0.90234 2.7148 3.2812 4.4648 4.6055 1.9414 7.7773-14.844 20.723-25.961 29.285-40.305 1.4922-2.5-1.9102-5.0234-3.9531-3.0547-7.4258 7.1484-13.305 15.461-19.285 23.809-5.2188 7.2852-11.055 13.75-14.105 22.328-1.082 3.0703 3.7852 4.3789 4.8672 1.3398z"></path>
<path xmlns="http://www.w3.org/2000/svg" d="m390.88 334.66c6.918-9.2617 13.035-19.086 22.277-26.254 2.3125-1.7891-0.64453-5.3516-3.0469-3.9531-8.5508 4.9531-14.16 12.949-19.48 21.055-1.7969 2.7422 2.5195 5.1797 4.3477 2.543 2.4844-3.5703 3.6562-7.5781 4.9609-11.688 1.7773-5.6016 4.8555-10.68 6.625-16.309 0.76562-2.4375-2.4727-4.207-4.2109-2.4492-6.8867 6.9609-8.9688 17.547-11.668 26.617-0.80469 2.7109 3.3086 4.5156 4.6055 1.9414 4.7344-9.4297 6.293-20.871 14.09-28.461-1.4023-0.81641-2.8047-1.6328-4.2109-2.4492-1.3672 5.6172-4.2461 10.602-4.8125 16.414-0.21094 2.1914 2.9023 3.3398 4.3008 1.7852 3.6133-4.0156 6.1836-8.8359 10.078-12.594-1.4023-0.81641-2.8047-1.6328-4.2109-2.4492-0.92578 3.4805-2.6211 6.6641-3.7773 10.078-0.79688 2.3438 2.5781 4.3516 4.2109 2.4492 1.5078-1.7578 2.8984-3.5938 4.4102-5.3555-1.4023-0.81641-2.8047-1.6328-4.2109-2.4492-0.42188 2.8555-0.83594 5.6641-1.0312 8.5391 0.83594-0.83984 1.6836-1.6758 2.5195-2.5195-2.168-0.22266-4.1328-0.22266-6.2969 0 0.22656 1.6484 0.44141 3.3008 0.67188 4.9492 4.5-1.5781 5.4258 3.6523 6.0312 6.1094 0.78516 3.1953 5.4297 1.8086 4.8633-1.3398-0.75391-4.1445-0.78125-8.0664-0.53906-12.242-1.5664 0.42188-3.1289 0.84766-4.6953 1.2695 1.8438 3.0664 1.9609 5.6797 1.5469 9.1172 1.6484-0.22266 3.293-0.44141 4.9492-0.67188-0.96875-3.8203-0.80469-7.168 0.31641-10.941h-4.8633c0.52734 3.0078 0.90625 5.9141 1.8906 8.8164 1.043 3.0586 5.9062 1.75 4.8633-1.3398-0.98438-2.9023-1.3594-5.8086-1.8906-8.8164-0.45312-2.5742-4.1953-2.2305-4.8633 0-1.3555 4.5703-1.4844 8.9922-0.31641 13.617 0.75 2.9688 4.6367 1.9805 4.9492-0.67188 0.51953-4.3086 0.015625-7.918-2.2305-11.664-1.3398-2.2266-4.5508-1.1836-4.6953 1.2695-0.26562 4.6211-0.10547 9.0352 0.71875 13.578 1.6211-0.44141 3.2383-0.89062 4.8633-1.3398-1.5352-6.2188-5.0586-12.148-12.234-9.6328-2.5234 0.88281-2.3164 5.25 0.67188 4.9492 2.168-0.22266 4.1328-0.22266 6.2969 0 1.4297 0.14453 2.4336-1.2578 2.5195-2.5195 0.17578-2.4141 0.46484-4.8164 0.85547-7.2031 0.32422-2.2109-2.3789-4.5898-4.2109-2.4492-1.5078 1.7578-2.8984 3.5938-4.4102 5.3555 1.4023 0.81641 2.8047 1.6328 4.2109 2.4492 1.1641-3.4297 2.8398-6.5703 3.7773-10.078 0.65625-2.457-2.4023-4.1953-4.2109-2.4492-3.9258 3.7852-6.4492 8.5586-10.078 12.594 1.4375 0.59375 2.8672 1.1875 4.3008 1.7852 0.51562-5.2852 3.3867-9.9609 4.6367-15.074 0.59375-2.4453-2.3789-4.2383-4.2109-2.4492-8.2422 8.0195-9.8984 19.559-14.879 29.477 1.5352 0.64453 3.0664 1.293 4.6055 1.9414 2.4375-8.1836 4.1758-18.129 10.375-24.395-1.4023-0.81641-2.8047-1.6328-4.207-2.4492-1.5781 5.0234-4.2383 9.5469-5.9844 14.484-1.5 4.2461-2.4922 8.5547-5.0977 12.309 1.4492 0.84766 2.9023 1.6914 4.3477 2.543 4.8477-7.3867 9.875-14.727 17.672-19.25-1.0117-1.3203-2.0312-2.6367-3.0469-3.9531-9.5742 7.4258-15.906 17.688-23.062 27.277-1.9648 2.6133 2.4102 5.1172 4.3242 2.5469z"></path>
<path xmlns="http://www.w3.org/2000/svg" d="m328.03 306.27c-0.75391 1.4766-1.5117 2.957-2.2656 4.4336-1.0469 1.6367 0.32812 3.7773 2.1758 3.7891 3.9883 0.03125 7.5273-0.66016 11.375-1.668-0.81641-1.4023-1.6328-2.8047-2.4492-4.207-2.918 2.4922-4.1914-10.258-2.6562-12.379-1.5352-0.20313-3.0664-0.40234-4.6055-0.60547 0.86328 4.2578 0.94141 8.6211 1.5781 12.914 0.39453 2.6758 4.1328 2.1094 4.8555 0 2.4805-7.2266 1.0195-14.617 1.668-22.082h-5.0391c-0.085938 7.6211-1.4023 17.441 3.4922 23.941 1.3242 1.7617 3.8281 1.5781 4.6055-0.60547 3.0547-8.5664 0.11719-17.66 1.0391-26.492h-5.0391c-0.125 9.1133-2.0508 20.848 3.8086 28.668 1.1875 1.5859 4.0898 1.7539 4.6055-0.60547 1.9492-8.8906-1.3789-17.578-1.4805-26.492h-5.0391c1.2383 9.9453 1.293 19.902 6.0117 28.98 1.3516 2.6016 5.2852 0.76562 4.6055-1.9414-0.9375-3.7188-1.9258-7.3867-3.1484-11.023-1.0273-3.0547-5.7148-1.8242-4.8555 1.3398 1.6758 6.1914 4.6914 11.723 7.1797 17.609 1.3203-1.0195 2.6367-2.0352 3.9531-3.0547-4.1016-3.8125-4.9023-11.723-5.9922-16.957-1.7344-8.3398-2.4844-16.625 4.418-22.934-1.4023-0.81641-2.8047-1.6328-4.207-2.4492-1.7422 6.6133-3.5977 13.082-4.5 19.875h5.0391c0.31641-8.2734 2.6953-15.898 9.3398-21.207-1.3203-1.0195-2.6367-2.0352-3.9531-3.0547-1.5234 2.8633-3.6133 4.5938-5.9062 6.7305-2.0625 1.918 0.74219 5.6914 3.0547 3.9531 3.75-2.8203 7.6094-4.5742 12.543-3.8398-0.20313-1.5312-0.40234-3.0664-0.60547-4.6055-5.4062 2.293-11.055 3.7852-16.375 6.2969 1.1484 1.1484 2.2969 2.2969 3.4453 3.4453 6.168-9.1758 16.551-2.8359 20.523 4.4102 1.3203-1.0195 2.6367-2.0352 3.9531-3.0547-2.0469-1.7422-3.9414-3.6133-5.9844-5.3555-1.0195 1.3203-2.0352 2.6367-3.0547 3.9531 6.8633 4.6445 7.0703 12.734 5.457 19.828-0.71875 3.1641 4.1367 4.5078 4.8555 1.3398 2.1445-9.4375 1.1328-19.488-7.7695-25.512-2.3633-1.5977-5.2344 2.1016-3.0547 3.9531 2.0469 1.7422 3.9414 3.6133 5.9844 5.3555 2.1406 1.8242 5.3867-0.44922 3.9531-3.0547-6.1602-11.227-21.191-16.367-29.227-4.4102-1.5352 2.2812 1.3555 4.4336 3.4453 3.4453 5.3047-2.5078 10.977-4.0117 16.375-6.2969 1.9453-0.82813 1.4727-4.2969-0.60547-4.6055-6.125-0.91797-11.465 0.61328-16.426 4.3477 1.0195 1.3203 2.0352 2.6367 3.0547 3.9531 2.6211-2.4453 5.0078-4.5781 6.6914-7.7539 1.4141-2.6602-1.7773-4.793-3.9531-3.0547-7.6289 6.0898-10.453 15.289-10.812 24.766-0.125 3.3398 4.625 3.1094 5.0391 0 0.83984-6.3398 2.6953-12.379 4.3164-18.539 0.66016-2.5039-2.3711-4.1328-4.207-2.4492-7.2461 6.625-7.957 15.566-6.3125 24.809 1.25 7.043 2.3594 17.062 7.8906 22.207 2.2305 2.0742 5.0312-0.51562 3.9531-3.0547-2.3125-5.4609-5.1133-10.645-6.6758-16.398-1.6172 0.44141-3.2383 0.89062-4.8555 1.3398 1.2188 3.6367 2.2109 7.3047 3.1484 11.023 1.5312-0.64453 3.0664-1.293 4.6055-1.9414-4.2656-8.2227-4.2031-17.445-5.3242-26.441-0.38672-3.125-5.0742-3.3398-5.0391 0 0.097656 8.3594 3.4805 16.859 1.668 25.148 1.5312-0.20312 3.0664-0.40234 4.6055-0.60547-5.2305-6.9844-3.2344-17.906-3.1172-26.121 0.046875-3.3086-4.7109-3.1602-5.0391 0-0.86719 8.3164 2.0117 17.113-0.85156 25.148 1.5312-0.20312 3.0664-0.40234 4.6055-0.60547-4.2578-5.6523-2.875-14.688-2.8047-21.402 0.035156-3.293-4.7617-3.1836-5.0391 0-0.60547 6.9688 0.83203 13.996-1.4805 20.742h4.8555c-0.64063-4.3594-0.69531-8.6055-1.5781-12.914-0.48047-2.3477-3.4453-2.2031-4.6055-0.60547-4.9336 6.8047 0.66016 26.957 10.57 18.48 1.9961-1.707-0.14062-4.8125-2.4492-4.207-3.3516 0.87109-6.5703 1.5078-10.035 1.4805 0.72656 1.2656 1.4492 2.5234 2.1758 3.7891 1.6641-2.5938 1.7617-2.8203 2.7695-5.6445 1.0859-2.9922-3.7812-4.2969-4.8711-1.2656z"></path>
<path xmlns="http://www.w3.org/2000/svg" d="m373.39 287.21-1.5781 1.5781c1.4023 0.81641 2.8047 1.6328 4.207 2.4492 1.5234-6.7969 3.4648-13.129 7.8555-18.727-1.4375-0.59375-2.8672-1.1875-4.3008-1.7852-0.78516 5.9922-3.8047 11.039-6.2656 16.363 1.5352 0.64453 3.0664 1.293 4.6055 1.9414 1.7188-4.3516 8.625-21.566 1.9961-24.883-1.3008-0.64844-2.625-0.28125-3.4453 0.90234-3.1992 4.6211-4.3984 9.8281-6.2383 15.09 1.6172 0.44141 3.2383 0.89062 4.8555 1.3398 1.6875-5.668 2.7852-10.887 0.37891-16.426-0.91797-2.1094-4.0508-1.3008-4.6055 0.60547-1.3906 4.7812-2.1523 9.5586-2.8359 14.484 1.6484 0.22266 3.3008 0.44141 4.9492 0.67187 0.71484-6.793-0.39453-13.148-3.4922-19.219-1.0391-2.0312-3.9961-1.3672-4.6055 0.60547-1.4062 4.5508-1.6289 8.8359-1.668 13.578-0.023437 3.3164 4.7109 3.1602 5.0391 0 0.61328-5.9258-0.31641-11.336-1.9805-17.043-0.66406-2.2891-4.3281-2.5273-4.8555 0-1.0742 5.1406-1.375 10.227-1.668 15.469 1.6484-0.22266 3.3008-0.44141 4.9492-0.67188-1.1836-5.3555-2.1602-10.375-4.3477-15.402-0.84766-1.9492-4.2578-1.4648-4.6055 0.60547-0.98438 5.875-1.2344 11.602 0.31641 17.398 0.75 2.832 4.8125 2.1172 4.9492-0.67188 0.34375-7.1289-0.97266-13.941-3.8086-20.48-0.90625-2.0898-4.0742-1.3242-4.6055 0.60547-1.6289 5.9531-1.4453 11.848-1.3516 17.984h5.0391c-0.14453-5.793-0.82031-10.48-3.1797-15.754-0.92188-2.0664-4.082-1.3438-4.6055 0.60547-1.0898 4.0352-0.70703 7.7148 0.31641 11.73 1.6172-0.44141 3.2383-0.89062 4.8555-1.3398-2.1172-7.8203-7.6445-16.238-16.637-14.355-2.8477 0.59375-2.1094 4.9219 0.67187 4.9492 9.8828 0.10156 19.434-2.3867 29.285-2.8359 3.2305-0.14453 3.2578-5.1172 0-5.0391-9.4023 0.23047-18.57 1.5664-27.75 3.5586 0.44141 1.6172 0.89062 3.2383 1.3398 4.8555 11.578-3.0664 22.523-1.9844 34.285-2.125 5.1328-0.066406 21.52-2.0156 23.711 4.1445 0.8125-1.0625 1.6172-2.125 2.4297-3.1875-10.934-0.20312-25.141-4.8984-35.543-8.4102-0.22266 1.6484-0.44141 3.3008-0.67188 4.9492 8.2969-0.83984 16.105 0.35156 24.355 1.3711 9.5078 1.1758 18.324 1.0898 26.965 5.8398 0.64453-1.5352 1.2891-3.0664 1.9414-4.6055-12.586-1.8086-25.102-3.9258-37.824-4.5v5.0391c6.7969-0.69141 33.73-0.81641 38.445 5.9961 0.50391-1.2344 1.0039-2.4688 1.5078-3.6992-0.60938-0.125-1.2227-0.25-1.8398-0.37891-2.8828-1.4766-5.4297 2.8711-2.5391 4.3477 2.4844 1.2695 2.9531 1.2656 5.7188 0.88281 1.5664-0.21094 2.3516-2.4727 1.5078-3.6992-3.1133-4.5-7.7539-5.8906-13.164-6.3945-9.7734-0.91016-19.816-3.0938-29.629-2.0977-3.1836 0.32422-3.3008 4.8906 0 5.0391 12.27 0.55078 24.348 2.5742 36.484 4.3164 2.6367 0.37891 4.6445-3.1133 1.9414-4.6055-6.9961-3.8477-13.82-5.2344-21.734-5.6992-10.848-0.63672-21.191-3.3086-32.117-2.207-2.8008 0.28125-3.4648 4-0.67188 4.9492 11.023 3.7266 25.246 8.3789 36.879 8.5938 1.5508 0.03125 2.9766-1.6484 2.4297-3.1875-2.7305-7.6797-13.164-7.5781-19.977-7.8711-14.629-0.625-29.965-1.4414-44.203 2.332-3.1523 0.83594-1.8203 5.543 1.3398 4.8555 8.7344-1.8906 17.473-3.1484 26.41-3.3711v-5.0391c-9.8359 0.44141-19.422 2.9375-29.285 2.8359 0.22266 1.6484 0.44141 3.3008 0.67188 4.9492 6.1094-1.2734 9.3359 6.7578 10.445 10.836 0.84766 3.1406 5.6562 1.8086 4.8555-1.3398-1.0781-2.9883-1.1836-6.0039-0.31641-9.0547-1.5312 0.20313-3.0664 0.40234-4.6055 0.60547 1.8047 4.2734 2.6289 8.6758 2.4883 13.215 0.082031 3.2461 5.0898 3.2539 5.0391 0-0.089843-5.6914-0.35938-11.07 1.168-16.652-1.5312 0.20312-3.0664 0.40234-4.6055 0.60547 2.4844 5.7344 3.4219 11.715 3.1172 17.938 1.6484-0.22266 3.3008-0.44141 4.9492-0.67188-1.3398-5.0234-1.1641-9.6328-0.31641-14.723-1.5312 0.20312-3.0664 0.40234-4.6055 0.60547 2.0156 4.6367 2.7617 9.3359 3.8398 14.199 0.64062 2.8984 4.7969 2.0625 4.9492-0.67188 0.26172-4.8008 0.49219-9.3828 1.4805-14.133h-4.8555c1.5234 5.2227 2.3672 10.227 1.7969 15.703h5.0391c0.03125-4.207 0.23828-8.2031 1.4805-12.242-1.5312 0.20312-3.0664 0.40234-4.6055 0.60547 2.7188 5.3242 3.4219 10.828 2.8047 16.676-0.29688 2.8164 4.5586 3.4727 4.9492 0.67188 0.68359-4.9258 1.4453-9.6992 2.8359-14.484-1.5312 0.20312-3.0664 0.40234-4.6055 0.60547 1.8203 4.1875 0.33203 8.4492-0.88281 12.543-0.9375 3.1445 3.793 4.3672 4.8555 1.3398 1.6758-4.7812 2.8125-9.668 5.7266-13.879-1.1484 0.30078-2.2969 0.60547-3.4453 0.90234 2.3867 1.1953-3.3359 16.742-4.3008 19.199-1.0469 2.6484 3.4102 4.5195 4.6055 1.9414 2.9531-6.3789 6.0352-11.898 6.957-18.902 0.27734-2.1094-3.0039-3.4414-4.3008-1.7852-4.957 6.3242-7.4062 13.141-9.1484 20.949-0.53906 2.4102 2.3633 4.2969 4.207 2.4492 0.52344-0.52344 1.0469-1.0469 1.5781-1.5781 2.2812-2.3125-1.2773-5.875-3.5781-3.5742z"></path>
<path xmlns="http://www.w3.org/2000/svg" d="m359.39 254.45c-1.293 0.16797-2.5547 0.48047-3.7773 0.94531-2.6953 0.83984-2.2266 4.9336 0.67188 4.9492 10.973 0.050781 21.789-1.9609 32.746-2.207v-5.0391c-10.496 1.3281-21.629 1.5469-30.867 7.2695-2.2969 1.4219-1.1133 4.4023 1.2695 4.6953 10.297 1.2539 19.281-4.418 29.285-5.668-0.42188-1.5664-0.84766-3.1289-1.2695-4.6953-9.707 4.3945-19.715 7.9609-28.656 13.855-2.2812 1.5-0.88281 5.582 1.9414 4.6055 10.484-3.6328 19.383-11.008 30.547-12.594-0.81641-1.4023-1.6328-2.8047-2.4492-4.207-7.9844 6.3828-17.074 11.07-25.625 16.609-2.7109 1.7578-0.28125 5.9961 2.543 4.3477 10.566-6.1523 20.332-13.715 32.145-17.383-0.81641-1.4023-1.6328-2.8047-2.4492-4.207-6.7656 8.1953-16.621 13.156-25.625 18.5 1.0195 1.3203 2.0352 2.6367 3.0547 3.9531 8.1406-6.9414 16.969-12.398 26.914-16.359-0.81641-1.4023-1.6328-2.8047-2.4492-4.207-5.6289 7.0117-13.477 11.438-20.902 16.293 1.0195 1.3203 2.0352 2.6367 3.0547 3.9531 6.3633-7.25 15.234-10.832 24.078-14.152-0.81641-1.4023-1.6328-2.8047-2.4492-4.207-6.625 6.2891-15.246 9.5664-22.477 15.035-2.5273 1.9141-0.39844 5.918 2.543 4.3477 4.6914-2.5078 9.3359-5.0625 13.855-7.875 2.3945-1.4844 0.85547-5.4258-1.9414-4.6055-6.6914 1.9648-13.121 4.5703-19.949 6.0273-4.4805 0.95312-8.8516 1.0312-12.016 4.6953-1.5312 1.7734-0.11719 5.0625 2.4492 4.207 1.0312-0.34375 1.6133-0.57031 2.4922-1.1992 2.6211-1.8672 0.10547-6.2422-2.543-4.3477-0.42969 0.22656-0.85547 0.45703-1.2852 0.69141l2.4492 4.207c2.7109-3.1406 7.7773-2.9727 11.48-3.7617 6.2461-1.3281 12.152-3.875 18.262-5.668-0.64453-1.5312-1.293-3.0664-1.9414-4.6055-4.5195 2.8125-9.1602 5.3594-13.855 7.875 0.84766 1.4492 1.6914 2.9023 2.543 4.3477 7.5859-5.7383 16.535-9.2188 23.496-15.824 1.7539-1.6641-0.039063-5.1133-2.4492-4.207-9.6328 3.6133-19.371 7.5469-26.305 15.445-1.8047 2.0547 0.53906 5.6016 3.0547 3.9531 7.7695-5.082 16.031-9.7422 21.922-17.086 1.375-1.7148 0.16797-5.25-2.4492-4.207-10.762 4.2812-20.332 10.141-29.137 17.648-2.2109 1.8906 0.63672 5.3906 3.0547 3.9531 9.3516-5.5508 19.609-10.762 26.648-19.285 1.4922-1.8086 0.15625-5.0195-2.4492-4.207-12.254 3.8047-22.383 11.508-33.352 17.887 0.84766 1.4492 1.6914 2.9023 2.543 4.3477 8.9258-5.7852 18.309-10.734 26.648-17.398 2.2305-1.7852-0.30078-4.5156-2.4492-4.207-11.262 1.5977-20 8.9414-30.547 12.594 0.64453 1.5312 1.293 3.0664 1.9414 4.6055 8.9336-5.8906 18.953-9.4648 28.656-13.855 2.2227-1.0039 1.1836-5.0039-1.2695-4.6953-9.8945 1.2344-19.172 6.8984-29.285 5.668 0.42188 1.5664 0.84766 3.1289 1.2695 4.6953 8.457-5.2461 18.723-5.3672 28.328-6.5859 3.1172-0.39844 3.3398-5.1133 0-5.0391-10.957 0.24219-21.773 2.2539-32.746 2.207 0.22266 1.6484 0.44141 3.3008 0.67188 4.9492 1.2227-0.46484 2.4844-0.77734 3.7773-0.94531 3.1562-0.57031 1.8008-5.4297-1.3711-4.832z"></path>
<path xmlns="http://www.w3.org/2000/svg" d="m391.12 272.41c-0.52344-0.41797-1.0469-0.83984-1.5781-1.2578-2.0742-1.6562-5.6641 0.48047-3.9531 3.0547 6.0625 9.1289 14.414 15.875 14.453 27.699 1.5664-0.42188 3.1289-0.84766 4.6953-1.2695-4.5078-9.8086-4.9883-20.809-9.7656-30.547-1.3008-2.6562-5.2383-0.74219-4.6055 1.9414 1.3281 5.6367 3.5586 10.977 4.9219 16.605 1.5234 6.2617-0.10937 13.266-0.60547 19.562-0.19141 2.4531 3.6328 3.5078 4.6953 1.2695 6.4883-13.66 6.3789-34.805-1.5781-47.887-1.2812-2.1055-4.7266-1.2734-4.6953 1.2695 0.12109 10.656 2.8672 22.965 6.0742 33.102 0.60547 1.918 3.6055 2.6914 4.6055 0.60547 4.1602-8.7266 0.089844-18.574 0.03125-27.719-1.6484 0.22266-3.3008 0.44141-4.9492 0.67188 2.8711 8.0469 0.75391 16.609 2.5195 24.879 0.5 2.332 4.4922 2.4922 4.8555 0 1.1172-7.6328-1.0117-15.074-0.22656-22.711-1.6484 0.22266-3.3008 0.44141-4.9492 0.67188 1.9883 6.4453 1.2695 13.215 2.207 19.84 0.30078 2.1523 3.707 2.4531 4.6055 0.60547 2.5898-5.3359 1.2188-10.988 1.918-16.703-1.6484 0.22266-3.293 0.44141-4.9492 0.67188 0.76953 3.2188 0.5625 6.4648 0.85156 9.7227 0.20312 2.2539 3.5117 3.75 4.6953 1.2695 1.6211-3.3945 2.4102-6.6562 3.0898-10.363 0.57812-3.1523-3.9141-4.4922-4.8633-1.3398-1.082 3.6406-1.8984 6.9531-1.6641 10.746 0.089844 1.4805 1.5703 3.0625 3.1875 2.4297 2.5508-0.99609 2.875-1.1992 4.8906-3.1641 2.3281-2.2734-1.2383-5.8359-3.5625-3.5625-0.88672 0.625-1.7852 1.25-2.6641 1.875 1.0625 0.8125 2.125 1.6172 3.1875 2.4297-0.21484-3.5312 0.50781-6.1328 1.4844-9.4062-1.6211-0.44141-3.2383-0.89062-4.8633-1.3398-0.59766 3.2539-1.1133 6.0898-2.5781 9.1602 1.5664 0.42188 3.1289 0.84766 4.6953 1.2695-0.33203-3.7695-0.14453-7.3711-1.0312-11.059-0.71875-2.9883-4.625-1.9609-4.9492 0.67188-0.55078 4.4844 0.79688 9.9688-1.2305 14.156 1.5352 0.20312 3.0664 0.40234 4.6055 0.60547-0.94531-6.7305-0.17578-13.273-2.207-19.84-0.88281-2.8516-4.6641-2.0859-4.9492 0.67188-0.74219 7.1758 1.457 14.223 0.40625 21.371h4.8555c-1.7773-8.3281 0.39453-16.723-2.5195-24.879-0.92578-2.5938-4.9688-2.2969-4.9492 0.67188 0.050781 7.9258 4.2305 17.684 0.66016 25.18 1.5352 0.20312 3.0664 0.40234 4.6055 0.60547-3.0273-9.5742-5.7734-21.809-5.8906-31.766-1.5664 0.42188-3.1289 0.84766-4.6953 1.2695 6.9414 11.418 7.2656 30.816 1.5781 42.797 1.5664 0.42188 3.1289 0.84766 4.6953 1.2695 0.46484-5.918 1.7266-12.055 0.85156-17.984-0.99219-6.7461-3.793-12.914-5.3555-19.523-1.5312 0.64453-3.0664 1.293-4.6055 1.9414 4.75 9.6992 5.25 20.727 9.7656 30.547 1.1016 2.332 4.7227 1.0703 4.7109-1.2969-0.050782-13.027-8.3867-20.062-15.145-30.238-1.3203 1.0195-2.6367 2.0352-3.9531 3.0547 0.52344 0.41797 1.0469 0.83984 1.5781 1.2578 2.5039 2.0039 6.0938-1.5352 3.5547-3.5664z"></path>
<path xmlns="http://www.w3.org/2000/svg" d="m369.82 296.55c0 2.3438 0.082032 4.6406 0.40625 6.9688 1.6172-0.44141 3.2383-0.89062 4.8555-1.3398-0.27344-1.0391-0.40625-2.1016-0.62891-3.1484-0.59375-2.8359-4.9492-2.1211-4.9492 0.67188v3.1484h5.0391c-0.066407-1.6289-0.33203-3.1836-0.71875-4.7617-0.67578-2.7617-5.0312-2.1758-4.9492 0.67188 0.066406 2.2578 0.54297 4.3086 1.6016 6.3086 1.5234 2.8711 5.875 0.32422 4.3477-2.543-0.64062-1.2109-0.875-2.4023-0.91797-3.7695-1.6484 0.22266-3.3008 0.44141-4.9492 0.67188 0.28125 1.1484 0.49219 2.2422 0.53906 3.4258 0.125 3.2344 5.0391 3.2578 5.0391 0v-3.1484c-1.6484 0.22266-3.3008 0.44141-4.9492 0.67188 0.21484 1.0469 0.35937 2.1094 0.62891 3.1484 0.84766 3.2344 5.2969 1.7773 4.8555-1.3398-0.26172-1.8594-0.22266-3.7578-0.22266-5.6289 0.003906-3.2578-5.0312-3.2578-5.0273-0.007813z"></path>
<path xmlns="http://www.w3.org/2000/svg" d="m409.58 321.47c0.76172 4.1914 1.582 8.3828 2.207 12.594 0.47266 3.2031 5.332 1.8398 4.8633-1.3398-0.625-4.2109-1.4453-8.4023-2.207-12.594-0.58203-3.1953-5.4375-1.8398-4.8633 1.3398z"></path>
<path xmlns="http://www.w3.org/2000/svg" d="m398.49 323.92c2.8711-2.1562 6.1836-3.043 9.75-2.8047 3.25 0.21484 3.2305-4.8203 0-5.0391-4.3359-0.29297-8.8008 0.87109-12.293 3.4922-2.5664 1.9219-0.058593 6.3047 2.543 4.3516z"></path>
<path xmlns="http://www.w3.org/2000/svg" d="m408.87 316.7c-0.9375 0.019531-1.75 0.125-2.5273 0.66016 0.64453-0.085937 1.2891-0.17188 1.9414-0.25-5.3945-1.4609-10.586 1.8555-13.547 6.1914-1.8398 2.6914 2.5273 5.2109 4.3477 2.543 1.125-1.6484 2.707-2.9688 4.5703-3.6992 0.83203-0.32422 1.7695-0.49219 2.6562-0.35938 1.0039 0.15625 1.7148-0.03125 2.5703-0.050781 3.2305-0.066406 3.2305-5.1055-0.011718-5.0352z"></path>
<path xmlns="http://www.w3.org/2000/svg" d="m407.69 319.89c0.31641 0.94531 0.62891 1.8906 0.94531 2.8359 1.4062-0.81641 2.8125-1.6328 4.2109-2.4492-0.10547-0.10547-0.20703-0.21094-0.31641-0.31641-2.3125-2.3125-5.7344 1.1641-3.5625 3.5625 0.64844 0.71875 1.2383 1.4844 1.8906 2.207 2.1875 2.4141 5.7383-1.1602 3.5625-3.5625-0.64844-0.71875-1.2383-1.4844-1.8906-2.207l-3.5625 3.5625c0.10547 0.10547 0.20703 0.21094 0.31641 0.31641 1.7227 1.7227 5.0273 0 4.2109-2.4492-0.31641-0.94531-0.62891-1.8906-0.94531-2.8359-1.0195-3.0703-5.8867-1.7539-4.8594 1.3359z"></path>
<path xmlns="http://www.w3.org/2000/svg" d="m407.28 322.34c1.8398 1.3906 3.2656 3.1797 3.8789 5.4219 0.85547 3.1289 5.7188 1.7969 4.8633-1.3398-0.98438-3.5781-3.2852-6.2383-6.1953-8.4336-2.6016-1.9531-5.1055 2.4297-2.5469 4.3516z"></path>
<path xmlns="http://www.w3.org/2000/svg" d="m403.92 319.58c1.2305-1.543 1.3203-2.1055 0.28906-1.6992-0.36328 0.082032-0.72656 0.16797-1.0898 0.24609-1.0312 0.23828-1.9492 0.71484-2.875 1.2031-2.4453 1.3008-4.5586 3.293-6.3789 5.3516-2.1445 2.4219 1.4062 6 3.5625 3.5625 2.0547-2.3242 4.4805-4.6758 7.5859-5.3867 2.4297-0.55469 4.3594-1.8438 3.7695-4.6211-0.6875-3.1758-5.5391-1.8281-4.8633 1.3438z"></path>
<path xmlns="http://www.w3.org/2000/svg" d="m393.21 289.98c1.6172 4.7617 0.85547 10.188 0.22266 15.074-0.41797 3.2148 4.625 3.1758 5.0391 0 0.69141-5.3438 1.3672-11.203-0.40625-16.414-1.0352-3.0586-5.9062-1.7461-4.8555 1.3398z"></path>
<path xmlns="http://www.w3.org/2000/svg" d="m392.58 289.04c1.7266 8.6055-0.57812 17.543-1.8906 26.059-0.48828 3.1758 4.3633 4.5391 4.8555 1.3398 1.457-9.4648 3.8125-19.172 1.8906-28.73-0.63672-3.1875-5.4961-1.8359-4.8555 1.332z"></path>
<path xmlns="http://www.w3.org/2000/svg" d="m392.18 283.96c0.085938 6.0273 1.1953 11.945 1.5781 17.949 0.20703 3.2227 5.2461 3.2461 5.0391 0-0.38281-6-1.4922-11.926-1.5781-17.949-0.046875-3.2461-5.0859-3.25-5.0391 0z"></path>
<path xmlns="http://www.w3.org/2000/svg" d="m622.52 402.1c-19.32-0.10156-38.617-1.1602-57.938-1.2578-6.6094-0.035156-9.9844 8.2578-5.3438 12.902 0.13672 0.13672 0.28125 0.28125 0.41797 0.41797 1.7852-4.3008 3.5625-8.6016 5.3438-12.902-1.582-0.16797-3.0391-0.16016-4.6211 0-9.5977 0.97266-9.6992 16.098 0 15.113 1.582-0.16016 3.0391-0.16797 4.6211 0 6.8203 0.72656 9.6484-8.6016 5.3438-12.902-0.13672-0.14062-0.28125-0.28125-0.41797-0.41797-1.7852 4.3008-3.5625 8.6016-5.3438 12.902 19.32 0.10156 38.617 1.1602 57.938 1.2578 9.75 0.054687 9.7422-15.062 0-15.113z"></path>

      </g>
      </svg>